<?xml version="1.0" encoding="UTF-8"?>
<svg version="1.1" xmlns="http://www.w3.org/2000/svg" width="200" height="200">
<path d="M0 0 C66 0 132 0 200 0 C200 66 200 132 200 200 C134 200 68 200 0 200 C0 134 0 68 0 0 Z " fill="#F1F1F0" transform="translate(0,0)"/>
<path d="M0 0 C9.41550175 6.84392685 18.38760376 15.18482939 25.6640625 24.30078125 C27.78048228 27.21039344 27.78048228 27.21039344 31 28 C31 28.99 31 29.98 31 31 C32.65 31 34.3 31 36 31 C35.34 32.65 34.68 34.3 34 36 C34.61875 36.515625 35.2375 37.03125 35.875 37.5625 C38 40 38 40 38.9375 43.4375 C40.16704388 47.56008831 41.97269576 49.05236166 45 52 C45 53.32 45 54.64 45 56 C45.30271961 57.34061543 45.63837971 58.67405895 46 60 C48.58713296 71.21706933 47.39007728 81.84277464 41.5234375 91.7109375 C30.8910679 107.68675439 14.1414564 114.34766835 -3.97436523 118.14892578 C-12.0095075 119.65270476 -20.04710453 119.46200904 -28.1875 119.3125 C-29.82876452 119.30095897 -31.47004246 119.29118873 -33.11132812 119.28320312 C-34.69272246 119.26980343 -36.27410484 119.25488728 -37.85546875 119.23828125 C-38.57220261 119.23089432 -39.28893646 119.22350739 -40.02738953 119.21589661 C-44.44368398 119.13279911 -48.65100622 118.70536696 -53 118 C-53 117.34 -53 116.68 -53 116 C-48.9472484 115.01751476 -45.16138263 114.91840426 -41 115 C-41.495 116.485 -41.495 116.485 -42 118 C-38.08284275 117.88821106 -34.16648772 117.758063 -30.25 117.625 C-29.15816406 117.5940625 -28.06632812 117.563125 -26.94140625 117.53125 C-19.48675826 117.26658794 -12.32434872 116.40954789 -5 115 C-5.99 114.01 -6.98 113.02 -8 112 C-7.34 112 -6.68 112 -6 112 C-6 111.34 -6 110.68 -6 110 C-9.08809695 108.23537317 -10.23312136 108 -14 108 C-15.32 108 -16.64 108 -18 108 C-18 107.34 -18 106.68 -18 106 C-19.65 105.67 -21.3 105.34 -23 105 C-23.33 105.66 -23.66 106.32 -24 107 C-24.33 105.02 -24.66 103.04 -25 101 C-25.66 101 -26.32 101 -27 101 C-26.505 104.465 -26.505 104.465 -26 108 C-27.98 108 -29.96 108 -32 108 C-32.33 107.01 -32.66 106.02 -33 105 C-33.66 104.67 -34.32 104.34 -35 104 C-34.01 103.67 -33.02 103.34 -32 103 C-32 102.01 -32 101.02 -32 100 C-34.31 100 -36.62 100 -39 100 C-39.185625 101.7015625 -39.185625 101.7015625 -39.375 103.4375 C-39.58125 104.613125 -39.7875 105.78875 -40 107 C-40.99 107.495 -40.99 107.495 -42 108 C-42 107.34 -42 106.68 -42 106 C-42.66 106 -43.32 106 -44 106 C-44 106.66 -44 107.32 -44 108 C-44.66 108 -45.32 108 -46 108 C-46.99 104.535 -46.99 104.535 -48 101 C-46.02 101.495 -46.02 101.495 -44 102 C-44 101.34 -44 100.68 -44 100 C-50.93 100 -57.86 100 -65 100 C-65 99.67 -65 99.34 -65 99 C-49.82 99 -34.64 99 -19 99 C-18.67 99.99 -18.34 100.98 -18 102 C-18 101.01 -18 100.02 -18 99 C-4.47 98.67 9.06 98.34 23 98 C23.33 97.01 23.66 96.02 24 95 C24.66 95.33 25.32 95.66 26 96 C24.19587357 92.73539027 23.16605307 91.11070205 20 89 C16.97670744 88.7389212 14.04123758 88.91184819 11 89 C11 85.7 11 82.4 11 79 C8.36 79 5.72 79 3 79 C3 82.3 3 85.6 3 89 C0.36 89 -2.28 89 -5 89 C-5 87.68 -5 86.36 -5 85 C-5.6290625 85.28875 -6.258125 85.5775 -6.90625 85.875 C-12.57042078 88.33174877 -16.82546106 89.82327186 -23 89 C-26.95224869 86.87186609 -29.95482907 84.27941485 -33 81 C-33.33 83.64 -33.66 86.28 -34 89 C-40.93 89 -47.86 89 -55 89 C-55.33 89.66 -55.66 90.32 -56 91 C-57.125 86.25 -57.125 86.25 -56 84 C-57.32 83.67 -58.64 83.34 -60 83 C-60.495 84.98 -60.495 84.98 -61 87 C-61.99 87 -62.98 87 -64 87 C-64 87.66 -64 88.32 -64 89 C-66.31 89 -68.62 89 -71 89 C-71.50588147 87.08487728 -72.00448391 85.16783078 -72.5 83.25 C-72.7784375 82.18265625 -73.056875 81.1153125 -73.34375 80.015625 C-74 77 -74 77 -74 73 C-74.66 73 -75.32 73 -76 73 C-76.04898438 73.66386719 -76.09796875 74.32773438 -76.1484375 75.01171875 C-76.89103691 83.78207381 -76.89103691 83.78207381 -79 88 C-81.31 88 -83.62 88 -86 88 C-88.92975651 80.44509488 -91.18120817 72.89520997 -93 65 C-93.99 65 -94.98 65 -96 65 C-96 65.66 -96 66.32 -96 67 C-97 68 -98 69 -99 70 C-103.76847032 75.46971596 -103.77074 80.91586602 -104 88 C-106.31 88 -108.62 88 -111 88 C-110.99097656 87.20078125 -110.98195313 86.4015625 -110.97265625 85.578125 C-111.19370479 77.38971808 -113.00496477 72.19768934 -117.50390625 65.36328125 C-119 63 -119 63 -119 61 C-116.36 61 -113.72 61 -111 61 C-110.54625 61.969375 -110.0925 62.93875 -109.625 63.9375 C-108.34213779 67.07079582 -108.34213779 67.07079582 -106 68 C-105.814375 66.88625 -105.62875 65.7725 -105.4375 64.625 C-104.963125 63.42875 -104.48875 62.2325 -104 61 C-100.625 59.625 -100.625 59.625 -97 59 C-95.7934375 58.690625 -95.7934375 58.690625 -94.5625 58.375 C-94.046875 58.25125 -93.53125 58.1275 -93 58 C-94.71626405 56.07908908 -94.71626405 56.07908908 -102 56 C-102 46.76 -102 37.52 -102 28 C-99.36 28 -96.72 28 -94 28 C-91.03 33.445 -91.03 33.445 -88 39 C-86.02795375 36.370605 -84.38460192 34.06894138 -82.8125 31.25 C-82.214375 30.1775 -81.61625 29.105 -81 28 C-78.36 28 -75.72 28 -73 28 C-73 36.25 -73 44.5 -73 53 C-72.34 53 -71.68 53 -71 53 C-70.97494385 52.2479126 -70.9498877 51.4958252 -70.92407227 50.72094727 C-70.80849486 47.33460804 -70.68559655 43.94857387 -70.5625 40.5625 C-70.52318359 39.37849609 -70.48386719 38.19449219 -70.44335938 36.97460938 C-70.40146484 35.84990234 -70.35957031 34.72519531 -70.31640625 33.56640625 C-70.26141968 32.00321655 -70.26141968 32.00321655 -70.20532227 30.40844727 C-70 28 -70 28 -69 27 C-66.66702567 26.95907063 -64.33294775 26.95758277 -62 27 C-61.41694775 23.15185513 -62.2997117 21.23691365 -64.5 18.1875 C-65.32219744 17.11635945 -66.15204049 16.0508641 -67 15 C-66.67 14.34 -66.34 13.68 -66 13 C-65.01 13 -64.02 13 -63 13 C-64.65 12.67 -66.3 12.34 -68 12 C-67.125 7.25 -67.125 7.25 -66 5 C-65.23042969 4.87109375 -64.46085937 4.7421875 -63.66796875 4.609375 C-60.39631484 3.86211583 -59.48456116 2.75658685 -57.3125 0.25 C-41.78722483 -16.15906693 -17.1770893 -11.35822325 0 0 Z " fill="#F0F0EF" transform="translate(137,45)"/>
<path d="M0 0 C11.22 0 22.44 0 34 0 C33 4 33 4 30.27734375 6.51953125 C22.98612861 13.40543676 20.51701623 19.82629645 20.20703125 29.73046875 C20.0437757 39.49168923 20.44215172 49.25625005 21 59 C23.97 59 26.94 59 30 59 C30 61.31 30 63.62 30 66 C29.01 66.495 29.01 66.495 28 67 C29.98 67.495 29.98 67.495 32 68 C32 67.34 32 66.68 32 66 C32.66 66 33.32 66 34 66 C33.9175 64.80375 33.835 63.6075 33.75 62.375 C33.74059057 57.05867091 36.17352177 54.11871475 39.5625 50.1875 C42.82206787 47.4948135 46.68766134 47.6795351 50.703125 47.69921875 C54.29737314 48.1698941 56.22908701 49.72643037 59 52 C58.25 53.9375 58.25 53.9375 57 56 C54.9375 56.8125 54.9375 56.8125 53 57 C52.67 56.67 52.34 56.34 52 56 C48.94239943 55.73412169 46.79159195 55.56590119 44.0625 57.0625 C42.3509896 60.18348955 43.20708009 62.64533884 44 66 C45.8691366 68.30886319 45.8691366 68.30886319 48.875 68.1875 C51.883714 68.13355176 51.883714 68.13355176 54.1875 67.3125 C54.785625 67.209375 55.38375 67.10625 56 67 C57.75 68.4375 57.75 68.4375 59 70 C58.02703346 72.65354511 57.34207577 73.79877896 54.875 75.25 C49.45050871 76.66508468 45.6507673 76.8888747 40.75 74.25 C38.33729126 72.27596558 36.11999638 70.28307302 34 68 C33.67 70.64 33.34 73.28 33 76 C26.07 76 19.14 76 12 76 C11.67 76.66 11.34 77.32 11 78 C9.875 73.25 9.875 73.25 11 71 C9.68 70.67 8.36 70.34 7 70 C6.505 71.98 6.505 71.98 6 74 C5.01 74 4.02 74 3 74 C3 74.66 3 75.32 3 76 C0.69 76 -1.62 76 -4 76 C-4.50588147 74.08487728 -5.00448391 72.16783078 -5.5 70.25 C-5.7784375 69.18265625 -6.056875 68.1153125 -6.34375 67.015625 C-7 64 -7 64 -7 60 C-7.66 60 -8.32 60 -9 60 C-9.04898438 60.66386719 -9.09796875 61.32773438 -9.1484375 62.01171875 C-9.89103691 70.78207381 -9.89103691 70.78207381 -12 75 C-14.31 75 -16.62 75 -19 75 C-21.92975651 67.44509488 -24.18120817 59.89520997 -26 52 C-26.99 52 -27.98 52 -29 52 C-29 52.66 -29 53.32 -29 54 C-30 55 -31 56 -32 57 C-36.76847032 62.46971596 -36.77074 67.91586602 -37 75 C-39.31 75 -41.62 75 -44 75 C-43.99097656 74.20078125 -43.98195313 73.4015625 -43.97265625 72.578125 C-44.19370479 64.38971808 -46.00496477 59.19768934 -50.50390625 52.36328125 C-52 50 -52 50 -52 48 C-49.36 48 -46.72 48 -44 48 C-43.54625 48.969375 -43.0925 49.93875 -42.625 50.9375 C-41.34213779 54.07079582 -41.34213779 54.07079582 -39 55 C-38.814375 53.88625 -38.62875 52.7725 -38.4375 51.625 C-37.7259375 49.830625 -37.7259375 49.830625 -37 48 C-33.625 46.625 -33.625 46.625 -30 46 C-29.195625 45.79375 -28.39125 45.5875 -27.5625 45.375 C-27.046875 45.25125 -26.53125 45.1275 -26 45 C-27.71626405 43.07908908 -27.71626405 43.07908908 -35 43 C-35 33.76 -35 24.52 -35 15 C-32.36 15 -29.72 15 -27 15 C-25.02 18.63 -23.04 22.26 -21 26 C-19.02795375 23.370605 -17.38460192 21.06894138 -15.8125 18.25 C-15.214375 17.1775 -14.61625 16.105 -14 15 C-11.36 15 -8.72 15 -6 15 C-6 23.25 -6 31.5 -6 40 C-5.34 40 -4.68 40 -4 40 C-3.97494385 39.2479126 -3.9498877 38.4958252 -3.92407227 37.72094727 C-3.80849486 34.33460804 -3.68559655 30.94857387 -3.5625 27.5625 C-3.52318359 26.37849609 -3.48386719 25.19449219 -3.44335938 23.97460938 C-3.38051758 22.28754883 -3.38051758 22.28754883 -3.31640625 20.56640625 C-3.27974854 19.52427979 -3.24309082 18.48215332 -3.20532227 17.40844727 C-3 15 -3 15 -2 14 C0.33297433 13.95907063 2.66705225 13.95758277 5 14 C5.41026056 11.29228028 5.32935767 9.53852868 3.88671875 7.1796875 C2.9766192 5.95425768 2.04600643 4.74374694 1.09375 3.55078125 C0 2 0 2 0 0 Z " fill="#EFF4ED" transform="translate(70,58)"/>
<path d="M0 0 C11.22 0 22.44 0 34 0 C33 4 33 4 30.27734375 6.51953125 C22.98612861 13.40543676 20.51701623 19.82629645 20.20703125 29.73046875 C20.0437757 39.49168923 20.44215172 49.25625005 21 59 C23.97 59 26.94 59 30 59 C30 61.31 30 63.62 30 66 C29.01 66.495 29.01 66.495 28 67 C29.32 67.33 30.64 67.66 32 68 C32 67.34 32 66.68 32 66 C32.66 66 33.32 66 34 66 C33.9175 64.80375 33.835 63.6075 33.75 62.375 C33.74059057 57.05867091 36.17352177 54.11871475 39.5625 50.1875 C42.82206787 47.4948135 46.68766134 47.6795351 50.703125 47.69921875 C54.29737314 48.1698941 56.22908701 49.72643037 59 52 C58.25 53.9375 58.25 53.9375 57 56 C54.9375 56.8125 54.9375 56.8125 53 57 C52.67 56.67 52.34 56.34 52 56 C48.94239943 55.73412169 46.79159195 55.56590119 44.0625 57.0625 C42.3509896 60.18348955 43.20708009 62.64533884 44 66 C45.8691366 68.30886319 45.8691366 68.30886319 48.875 68.1875 C51.883714 68.13355176 51.883714 68.13355176 54.1875 67.3125 C54.785625 67.209375 55.38375 67.10625 56 67 C57.75 68.4375 57.75 68.4375 59 70 C58.02703346 72.65354511 57.34207577 73.79877896 54.875 75.25 C49.45050871 76.66508468 45.6507673 76.8888747 40.75 74.25 C38.33729126 72.27596558 36.11999638 70.28307302 34 68 C33.67 70.64 33.34 73.28 33 76 C26.73 76 20.46 76 14 76 C14.0220752 74.37167236 14.04415039 72.74334473 14.06689453 71.06567383 C14.13608872 64.97286108 14.13868211 58.88146287 14.12207031 52.78833008 C14.12400634 50.16097711 14.14354562 47.53357163 14.18164062 44.90649414 C15.11715747 27.37318234 15.11715747 27.37318234 8.1171875 12.01171875 C6.43409633 10.31834048 4.73088409 8.6444957 3 7 C0 2.56841964 0 2.56841964 0 0 Z " fill="#AC7B5E" transform="translate(70,58)"/>
<path d="M0 0 C2.64 0 5.28 0 8 0 C8.99 3.63 9.98 7.26 11 11 C13.3129482 8.6870518 13.49580975 7.52095125 14.125 4.375 C14.41375 2.93125 14.7025 1.4875 15 0 C17.97 0 20.94 0 24 0 C24.19916016 1.17369141 24.19916016 1.17369141 24.40234375 2.37109375 C24.57894531 3.38300781 24.75554687 4.39492187 24.9375 5.4375 C25.11152344 6.44683594 25.28554687 7.45617187 25.46484375 8.49609375 C25.74751097 10.9287438 25.74751097 10.9287438 27 12 C27.99 8.04 28.98 4.08 30 0 C32.64 0 35.28 0 38 0 C35.73529777 9.49247529 33.27787201 18.7940616 30 28 C27.69 28 25.38 28 23 28 C22.49411853 26.08487728 21.99551609 24.16783078 21.5 22.25 C21.2215625 21.18265625 20.943125 20.1153125 20.65625 19.015625 C20 16 20 16 20 12 C19.34 12 18.68 12 18 12 C17.95101562 12.66386719 17.90203125 13.32773438 17.8515625 14.01171875 C17.10896309 22.78207381 17.10896309 22.78207381 15 27 C12.69 27 10.38 27 8 27 C4.48742304 18.18118975 2.17390522 9.21597055 0 0 Z " fill="#579B55" transform="translate(43,106)"/>
<path d="M0 0 C0.66 0 1.32 0 2 0 C5.66418243 11.07978971 6.87166359 22.28483822 2.03515625 33.171875 C-4.6800214 46.28568995 -16.12537807 55.17360295 -29.97680664 60.05712891 C-43.4595146 64.26210493 -56.13497277 65.57059309 -70.1875 65.3125 C-71.82876452 65.30095897 -73.47004246 65.29118873 -75.11132812 65.28320312 C-76.69272246 65.26980343 -78.27410484 65.25488728 -79.85546875 65.23828125 C-80.57220261 65.23089432 -81.28893646 65.22350739 -82.02738953 65.21589661 C-86.44368398 65.13279911 -90.65100622 64.70536696 -95 64 C-95 63.34 -95 62.68 -95 62 C-90.9472484 61.01751476 -87.16138263 60.91840426 -83 61 C-83.33 61.99 -83.66 62.98 -84 64 C-64.29493982 63.57002822 -45.7469599 62.99419271 -27.8125 54.0625 C-26.33716797 53.33740234 -26.33716797 53.33740234 -24.83203125 52.59765625 C-14.10792679 46.54778215 -10.24065855 37.45713142 -7 26 C-6.60891233 23.37615726 -6.38952921 20.81030372 -6.234375 18.1640625 C-5.86937291 14.79387652 -4.43874968 12.04350895 -3 9 C-1.94078201 6.01885253 -0.96344455 3.01332657 0 0 Z " fill="#559B51" transform="translate(179,99)"/>
<path d="M0 0 C2.64 0 5.28 0 8 0 C9.98 3.63 11.96 7.26 14 11 C15.97204625 8.370605 17.61539808 6.06894138 19.1875 3.25 C19.785625 2.1775 20.38375 1.105 21 0 C23.64 0 26.28 0 29 0 C29 8.91 29 17.82 29 27 C26.36 27 23.72 27 21 27 C20.505 22.05 20.505 22.05 20 17 C19.608125 17.825 19.21625 18.65 18.8125 19.5 C17 22 17 22 14.5 22.625 C12 22 12 22 10.1875 19.625 C9 17 9 17 9 15 C8.34 15 7.68 15 7 15 C7 18.96 7 22.92 7 27 C4.69 27 2.38 27 0 27 C0 18.09 0 9.18 0 0 Z " fill="#4B9947" transform="translate(35,73)"/>
<path d="M0 0 C15.18 0 30.36 0 46 0 C46.495 1.485 46.495 1.485 47 3 C47 2.01 47 1.02 47 0 C60.53 0 74.06 0 88 0 C88 0.33 88 0.66 88 1 C84.7 1.33 81.4 1.66 78 2 C78.495 3.485 78.495 3.485 79 5 C78.67 5.66 78.34 6.32 78 7 C81.465 6.505 81.465 6.505 85 6 C78.19886532 12.33209091 69.25629963 16 60 16 C58.25 14.5 58.25 14.5 57 13 C57.66 13 58.32 13 59 13 C59 12.34 59 11.68 59 11 C55.91190305 9.23537317 54.76687864 9 51 9 C49.68 9 48.36 9 47 9 C47 8.34 47 7.68 47 7 C44.525 6.505 44.525 6.505 42 6 C41.67 6.66 41.34 7.32 41 8 C40.505 5.03 40.505 5.03 40 2 C39.34 2 38.68 2 38 2 C38.495 5.465 38.495 5.465 39 9 C37.02 9 35.04 9 33 9 C32.505 7.515 32.505 7.515 32 6 C31.34 5.67 30.68 5.34 30 5 C30.99 4.67 31.98 4.34 33 4 C33 3.01 33 2.02 33 1 C30.69 1 28.38 1 26 1 C25.87625 2.134375 25.7525 3.26875 25.625 4.4375 C25.315625 6.2009375 25.315625 6.2009375 25 8 C24.01 8.495 24.01 8.495 23 9 C23 8.34 23 7.68 23 7 C22.34 7 21.68 7 21 7 C21 7.66 21 8.32 21 9 C20.34 9 19.68 9 19 9 C18.34 6.69 17.68 4.38 17 2 C18.32 2.33 19.64 2.66 21 3 C21 2.34 21 1.68 21 1 C14.07 1 7.14 1 0 1 C0 0.67 0 0.34 0 0 Z " fill="#EDEDEA" transform="translate(72,144)"/>
<path d="M0 0 C1.640625 1.10546875 1.640625 1.10546875 4.078125 3.10546875 C3.328125 5.04296875 3.328125 5.04296875 2.078125 7.10546875 C0.015625 7.91796875 0.015625 7.91796875 -1.921875 8.10546875 C-2.416875 7.61046875 -2.416875 7.61046875 -2.921875 7.10546875 C-5.97947557 6.83959044 -8.13028305 6.67136994 -10.859375 8.16796875 C-12.5708854 11.2889583 -11.71479491 13.75080759 -10.921875 17.10546875 C-9.0527384 19.41433194 -9.0527384 19.41433194 -6.046875 19.29296875 C-3.038161 19.23902051 -3.038161 19.23902051 -0.734375 18.41796875 C-0.13625 18.31484375 0.461875 18.21171875 1.078125 18.10546875 C2.828125 19.54296875 2.828125 19.54296875 4.078125 21.10546875 C3.10515846 23.75901386 2.42020077 24.90424771 -0.046875 26.35546875 C-5.47136629 27.77055343 -9.2711077 27.99434345 -14.171875 25.35546875 C-16.58458374 23.38143433 -18.80187862 21.38854177 -20.921875 19.10546875 C-21.251875 21.74546875 -21.581875 24.38546875 -21.921875 27.10546875 C-26.211875 27.10546875 -30.501875 27.10546875 -34.921875 27.10546875 C-35.06473214 15.39118304 -35.06473214 15.39118304 -33.921875 10.10546875 C-30.951875 10.10546875 -27.981875 10.10546875 -24.921875 10.10546875 C-24.921875 12.41546875 -24.921875 14.72546875 -24.921875 17.10546875 C-25.581875 17.43546875 -26.241875 17.76546875 -26.921875 18.10546875 C-25.601875 18.43546875 -24.281875 18.76546875 -22.921875 19.10546875 C-22.921875 18.44546875 -22.921875 17.78546875 -22.921875 17.10546875 C-22.261875 17.10546875 -21.601875 17.10546875 -20.921875 17.10546875 C-21.004375 15.90921875 -21.086875 14.71296875 -21.171875 13.48046875 C-21.18128443 8.16413966 -18.74835323 5.2241835 -15.359375 1.29296875 C-11.43849135 -1.94602209 -4.50261756 -2.09573053 0 0 Z " fill="#4F984A" transform="translate(124.921875,106.89453125)"/>
<path d="M0 0 C8.46473964 6.15283821 15.73866719 13.51056249 23 21 C22.67 21.66 22.34 22.32 22 23 C21.24976563 22.21496094 20.49953125 21.42992188 19.7265625 20.62109375 C9.17490642 9.72222951 -3.70765475 -2.16166291 -19.8125 -2.5 C-21.5457878 -2.3837737 -23.27681881 -2.22009479 -25 -2 C-25.74507812 -1.91492187 -26.49015625 -1.82984375 -27.2578125 -1.7421875 C-33.06135266 -0.7645302 -37.88723518 1.82991538 -43.0625 4.54296875 C-46.32953638 6.16345355 -49.57226333 7.32816871 -53.0625 8.359375 C-55.06411507 8.96325482 -55.06411507 8.96325482 -57.046875 10.0703125 C-59.73516044 11.34993637 -62.06582008 11.13337181 -65 11 C-62.31745962 2.83574668 -55.12592678 -3.24526278 -47.625 -7.0625 C-31.97897847 -14.22297565 -13.7643293 -9.10156094 0 0 Z " fill="#904F2B" transform="translate(137,45)"/>
<path d="M0 0 C2.64 0 5.28 0 8 0 C8 3.63 8 7.26 8 11 C10.64 11 13.28 11 16 11 C16 7.37 16 3.74 16 0 C18.64 0 21.28 0 24 0 C24 9.24 24 18.48 24 28 C21.36 28 18.72 28 16 28 C16 24.7 16 21.4 16 18 C13.36 18 10.72 18 8 18 C8 21.3 8 24.6 8 28 C5.36 28 2.72 28 0 28 C0 18.76 0 9.52 0 0 Z " fill="#599E55" transform="translate(132,106)"/>
<path d="M0 0 C2.31 0 4.62 0 7 0 C7 0.99 7 1.98 7 3 C6.01 3.495 6.01 3.495 5 4 C5.99 5.485 5.99 5.485 7 7 C9.58380177 7.25030977 9.58380177 7.25030977 12 7 C12 5.02 12 3.04 12 1 C13.32 1.33 14.64 1.66 16 2 C16 2.99 16 3.98 16 5 C18.475 5.495 18.475 5.495 21 6 C21 6.66 21 7.32 21 8 C22.65 7.67 24.3 7.34 26 7 C26 7.66 26 8.32 26 9 C26.66 9 27.32 9 28 9 C28.33 8.01 28.66 7.02 29 6 C30.32 7.32 31.64 8.64 33 10 C32.67 10.99 32.34 11.98 32 13 C32.99 13.99 33.98 14.98 35 16 C22.4698302 18.79001793 9.75700521 18.1938528 -3 18 C-3 17.34 -3 16.68 -3 16 C-3.99 15.67 -4.98 15.34 -6 15 C-6 13.35 -6 11.7 -6 10 C-5.34 10 -4.68 10 -4 10 C-4.33 8.68 -4.66 7.36 -5 6 C-4.01 6.33 -3.02 6.66 -2 7 C-1.34 4.69 -0.68 2.38 0 0 Z " fill="#E4EBE0" transform="translate(98,145)"/>
<path d="M0 0 C7.80550971 7.59454999 7.80550971 7.59454999 8.36076355 11.60699463 C8.35410172 12.59294617 8.34743988 13.57889771 8.34057617 14.59472656 C8.34034958 15.71558655 8.34012299 16.83644653 8.33988953 17.99127197 C8.32440567 19.19555847 8.30892181 20.39984497 8.29296875 21.640625 C8.28872391 22.87794373 8.28447906 24.11526245 8.28010559 25.39007568 C8.26616254 28.67162541 8.23923086 31.95273056 8.20599365 35.23413086 C8.17524594 38.58573307 8.16184603 41.93735439 8.14648438 45.2890625 C8.11339996 51.85954877 8.06318845 58.42973802 8 65 C7.34 65 6.68 65 6 65 C5.505 65.99 5.505 65.99 5 67 C3.875 62.25 3.875 62.25 5 60 C3.68 59.67 2.36 59.34 1 59 C0.67 60.32 0.34 61.64 0 63 C-0.66 63 -1.32 63 -2 63 C-1.16377474 54.01057849 2.14548139 45.5123537 5 37 C2.69 37 0.38 37 -2 37 C-2 36.67 -2 36.34 -2 36 C0.31 36 2.62 36 5 36 C5 33.69 5 31.38 5 29 C5.33 29 5.66 29 6 29 C6.0270203 26.24993392 6.04684883 23.50013454 6.0625 20.75 C6.07087891 19.97269531 6.07925781 19.19539063 6.08789062 18.39453125 C6.09111328 17.64042969 6.09433594 16.88632813 6.09765625 16.109375 C6.10289307 15.41811523 6.10812988 14.72685547 6.11352539 14.01464844 C5.99437971 11.90026102 5.57618237 10.03358485 5 8 C3.68 8.33 2.36 8.66 1 9 C0.67 16.26 0.34 23.52 0 31 C-2.64 31 -5.28 31 -8 31 C-8 21.76 -8 12.52 -8 3 C-5.69 3 -3.38 3 -1 3 C-0.67 2.01 -0.34 1.02 0 0 Z " fill="#E4EDE2" transform="translate(76,69)"/>
<path d="M0 0 C2.64 0 5.28 0 8 0 C17 19.33333333 17 19.33333333 17 27 C14.69 27 12.38 27 10 27 C9.67 26.01 9.34 25.02 9 24 C6.03 24 3.06 24 0 24 C-0.33 24.99 -0.66 25.98 -1 27 C-3.31 27 -5.62 27 -8 27 C-7.39795395 20.81842856 -5.55317819 15.38166239 -3.4375 9.5625 C-3.10814453 8.64017578 -2.77878906 7.71785156 -2.43945312 6.76757812 C-1.63217353 4.5095352 -0.81891273 2.25384435 0 0 Z " fill="#549852" transform="translate(104,73)"/>
<path d="M0 0 C2.31 0.33 4.62 0.66 7 1 C6.67 20.14 6.34 39.28 6 59 C4.02 59 2.04 59 0 59 C-0.15361109 51.45512064 -0.3017928 43.91015145 -0.4429636 36.36502934 C-0.50868092 32.86186429 -0.5762974 29.35875701 -0.64819336 25.85571289 C-0.7306875 21.83228789 -0.80503044 17.80874879 -0.87890625 13.78515625 C-0.90594131 12.52163834 -0.93297638 11.25812042 -0.96083069 9.95631409 C-0.98092697 8.795186 -1.00102325 7.63405792 -1.02172852 6.43774414 C-1.04171402 5.40960098 -1.06169952 4.38145782 -1.08229065 3.32215881 C-1 1 -1 1 0 0 Z " fill="#965731" transform="translate(84,75)"/>
<path d="M0 0 C2.64 0 5.28 0 8 0 C8.45375 0.969375 8.9075 1.93875 9.375 2.9375 C10.65786221 6.07079582 10.65786221 6.07079582 13 7 C13.66 4.69 14.32 2.38 15 0 C17.97 0 20.94 0 24 0 C22.69580638 3.57235645 21.08857462 6.43894938 18.9375 9.5625 C15.43475614 15.21291162 15.0224869 20.456312 15 27 C12.69 27 10.38 27 8 27 C8.00902344 26.20078125 8.01804687 25.4015625 8.02734375 24.578125 C7.80629521 16.38971808 5.99503523 11.19768934 1.49609375 4.36328125 C0 2 0 2 0 0 Z " fill="#50974A" transform="translate(18,106)"/>
<path d="M0 0 C1.65 0.33 3.3 0.66 5 1 C4.52328556 3.7013818 3.93934105 6.16681211 3 8.75 C2.17135618 11.44309241 1.86314232 13.31746149 1.6875 16.0625 C1.12039368 22.43154021 -1.55165478 28.15468871 -4 34 C-2.68 34 -1.36 34 0 34 C0 35.32 0 36.64 0 38 C-2.64 38 -5.28 38 -8 38 C-8.23464903 33.54257084 -8.37519583 29.08674923 -8.5 24.625 C-8.56703125 23.37332031 -8.6340625 22.12164062 -8.703125 20.83203125 C-8.88040124 12.36709081 -7.52822708 7.92597599 -1.73242188 1.67333984 C-1.16072266 1.1211377 -0.58902344 0.56893555 0 0 Z " fill="#F2F3EF" transform="translate(99,67)"/>
<path d="M0 0 C0.33 0 0.66 0 1 0 C1 8.91 1 17.82 1 27 C3.64 27 6.28 27 9 27 C9 25.68 9 24.36 9 23 C10.65 23 12.3 23 14 23 C14.33 23.99 14.66 24.98 15 26 C15.66 26.66 16.32 27.32 17 28 C16.69140625 30.19921875 16.69140625 30.19921875 16 33 C15.63554392 35.26920467 15.28179559 37.5401491 14.9375 39.8125 C14.67259766 41.55466797 14.67259766 41.55466797 14.40234375 43.33203125 C14.26957031 44.21246094 14.13679688 45.09289062 14 46 C13.34 46 12.68 46 12 46 C12 46.66 12 47.32 12 48 C10.35 47.67 8.7 47.34 7 47 C8.485 46.505 8.485 46.505 10 46 C10 43.69 10 41.38 10 39 C7.03 39 4.06 39 1 39 C1 40.98 1 42.96 1 45 C0.67 45 0.34 45 0 45 C0 30.15 0 15.3 0 0 Z " fill="#EAF4E7" transform="translate(90,78)"/>
<path d="M0 0 C-0.515625 0.4125 -1.03125 0.825 -1.5625 1.25 C-2.036875 1.8275 -2.51125 2.405 -3 3 C-2.77242269 5.16299211 -2.77242269 5.16299211 -2 7 C-2.99 7 -3.98 7 -5 7 C-5.04125 7.5775 -5.0825 8.155 -5.125 8.75 C-6.44092494 12.13380698 -8.85519 13.48095006 -12 15 C-14.58982623 15.89632577 -17.18337267 16.66942986 -19.828125 17.38671875 C-22.02222938 17.93306239 -22.02222938 17.93306239 -24 19 C-25.99960012 19.039992 -28.00047242 19.04346799 -30 19 C-27.34741981 10.92692986 -20.16375464 4.84049599 -12.875 0.8125 C-8.15799957 -1.32209196 -4.98342934 -1.19971447 0 0 Z " fill="#935333" transform="translate(102,37)"/>
<path d="M0 0 C14.52 0 29.04 0 44 0 C44 0.99 44 1.98 44 3 C44.185625 3.66 44.37125 4.32 44.5625 5 C45 7 45 7 44 10 C41.69 10 39.38 10 37 10 C36.34 8.02 35.68 6.04 35 4 C35 5.32 35 6.64 35 8 C34 10.25 34 10.25 33 12 C32.505 10.02 32.505 10.02 32 8 C31.67 8.66 31.34 9.32 31 10 C29.02 10 27.04 10 25 10 C25 7.36 25 4.72 25 2 C22.03 1.505 22.03 1.505 19 1 C18.34 3.64 17.68 6.28 17 9 C15.35 8.67 13.7 8.34 12 8 C12 6.02 12 4.04 12 2 C8.04 1.67 4.08 1.34 0 1 C0 0.67 0 0.34 0 0 Z " fill="#D8D0C9" transform="translate(27,144)"/>
<path d="M0 0 C6.6 0 13.2 0 20 0 C19.25 11.625 19.25 11.625 17 15 C15.68 14.67 14.36 14.34 13 14 C12.34 15.32 11.68 16.64 11 18 C9.15912001 15.38021769 7.32861565 12.75335419 5.5 10.125 C4.97535156 9.37863281 4.45070313 8.63226563 3.91015625 7.86328125 C3.16572266 6.79013672 3.16572266 6.79013672 2.40625 5.6953125 C1.94541016 5.03547363 1.48457031 4.37563477 1.00976562 3.69580078 C0 2 0 2 0 0 Z " fill="#B68B73" transform="translate(70,58)"/>
<path d="M0 0 C15.18 0 30.36 0 46 0 C46.495 1.485 46.495 1.485 47 3 C48.32 2.67 49.64 2.34 51 2 C51.93423645 5.01031744 52.04449911 5.86650268 51 9 C49.68 9 48.36 9 47 9 C47 8.34 47 7.68 47 7 C44.525 6.505 44.525 6.505 42 6 C41.67 6.66 41.34 7.32 41 8 C40.505 5.03 40.505 5.03 40 2 C39.34 2 38.68 2 38 2 C38.495 5.465 38.495 5.465 39 9 C37.02 9 35.04 9 33 9 C32.505 7.515 32.505 7.515 32 6 C31.34 5.67 30.68 5.34 30 5 C30.99 4.67 31.98 4.34 33 4 C33 3.01 33 2.02 33 1 C30.69 1 28.38 1 26 1 C25.87625 2.134375 25.7525 3.26875 25.625 4.4375 C25.315625 6.2009375 25.315625 6.2009375 25 8 C24.01 8.495 24.01 8.495 23 9 C23 8.34 23 7.68 23 7 C22.34 7 21.68 7 21 7 C21 7.66 21 8.32 21 9 C20.34 9 19.68 9 19 9 C18.34 6.69 17.68 4.38 17 2 C18.32 2.33 19.64 2.66 21 3 C21 2.34 21 1.68 21 1 C14.07 1 7.14 1 0 1 C0 0.67 0 0.34 0 0 Z " fill="#DCDAD4" transform="translate(72,144)"/>
<path d="M0 0 C0.33 1.32 0.66 2.64 1 4 C2.32 3.67 3.64 3.34 5 3 C6.88470109 6.19902675 7.24497641 8.53485865 7.22705078 12.22753906 C7.22689972 13.26831604 7.22674866 14.30909302 7.22659302 15.38140869 C7.21627045 16.49820007 7.20594788 17.61499146 7.1953125 18.765625 C7.19106766 20.48842682 7.19106766 20.48842682 7.18673706 22.24603271 C7.17554263 25.91412781 7.15043904 29.5819787 7.125 33.25 C7.11496926 35.73697564 7.10584358 38.22395511 7.09765625 40.7109375 C7.07560568 46.80737498 7.04213525 52.90367004 7 59 C6.67 59 6.34 59 6 59 C5.67 49.76 5.34 40.52 5 31 C4.34 31 3.68 31 3 31 C3 30.01 3 29.02 3 28 C2.34 28 1.68 28 1 28 C-0.35700647 25.28598706 -0.1123861 23.15153684 -0.09765625 20.1171875 C-0.09443359 18.95058594 -0.09121094 17.78398438 -0.08789062 16.58203125 C-0.07951172 15.35871094 -0.07113281 14.13539062 -0.0625 12.875 C-0.05798828 11.64394531 -0.05347656 10.41289063 -0.04882812 9.14453125 C-0.0370133 6.09630608 -0.02054028 3.04817686 0 0 Z " fill="#F4F3F0" transform="translate(76,74)"/>
<path d="M0 0 C0.33 0 0.66 0 1 0 C1.02689216 1.47906892 1.04634621 2.95827483 1.0625 4.4375 C1.07410156 5.26121094 1.08570312 6.08492188 1.09765625 6.93359375 C1 9 1 9 0 10 C-0.23075082 11.34747084 -0.41153063 12.70377565 -0.5625 14.0625 C-0.706875 15.361875 -0.85125 16.66125 -1 18 C-5.29 18 -9.58 18 -14 18 C-14.14285714 6.28571429 -14.14285714 6.28571429 -13 1 C-10.03 1 -7.06 1 -4 1 C-4 3.31 -4 5.62 -4 8 C-4.99 8.495 -4.99 8.495 -6 9 C-4.68 9.33 -3.36 9.66 -2 10 C-2 9.34 -2 8.68 -2 8 C-1.34 8 -0.68 8 0 8 C0 5.36 0 2.72 0 0 Z " fill="#CFE5C7" transform="translate(104,116)"/>
<path d="M0 0 C2.31 0 4.62 0 7 0 C7 8.91 7 17.82 7 27 C4.69 27 2.38 27 0 27 C0 18.09 0 9.18 0 0 Z " fill="#50964C" transform="translate(68,73)"/>
<path d="M0 0 C2.97 0 5.94 0 9 0 C9.33 1.32 9.66 2.64 10 4 C12.31 4 14.62 4 17 4 C17.33 3.34 17.66 2.68 18 2 C18 2.99 18 3.98 18 5 C17.34 5 16.68 5 16 5 C16 5.99 16 6.98 16 8 C16.66 8 17.32 8 18 8 C18 8.66 18 9.32 18 10 C17.26394531 10.09796875 16.52789062 10.1959375 15.76953125 10.296875 C8.13205407 11.45493542 8.13205407 11.45493542 2 16 C1.87625 15.278125 1.7525 14.55625 1.625 13.8125 C1.0095069 11.04278106 0.11555626 8.6029646 -1 6 C-3.64 5.67 -6.28 5.34 -9 5 C-8.67 4.01 -8.34 3.02 -8 2 C-8 2.66 -8 3.32 -8 4 C-5.69 4 -3.38 4 -1 4 C-0.67 2.68 -0.34 1.36 0 0 Z " fill="#E3EEE1" transform="translate(104,96)"/>
<path d="M0 0 C0.33 0 0.66 0 1 0 C1.33 9.24 1.66 18.48 2 28 C2.99 27.34 3.98 26.68 5 26 C5 35.9 5 45.8 5 56 C3.35 56 1.7 56 0 56 C0 37.52 0 19.04 0 0 Z " fill="#8A4924" transform="translate(84,78)"/>
<path d="M0 0 C2.31 0 4.62 0 7 0 C7 0.99 7 1.98 7 3 C6.01 3.495 6.01 3.495 5 4 C5.804375 4.7425 6.60875 5.485 7.4375 6.25 C9.91605692 8.90991475 10.29027524 9.6879511 11 13 C11.99 13.33 12.98 13.66 14 14 C12.31977439 16.05300878 11.47931509 16.92823089 8.80859375 17.328125 C8.02613281 17.30234375 7.24367188 17.2765625 6.4375 17.25 C5.25994141 17.22679687 5.25994141 17.22679687 4.05859375 17.203125 C2 17 2 17 0 16 C0 15.34 0 14.68 0 14 C-1.32 13.67 -2.64 13.34 -4 13 C-3.34 13 -2.68 13 -2 13 C-2.33 11.68 -2.66 10.36 -3 9 C-2.34 8.67 -1.68 8.34 -1 8 C-0.53476937 6.10466658 -0.53476937 6.10466658 -0.375 3.9375 C-0.25125 2.638125 -0.1275 1.33875 0 0 Z " fill="#F0F0EF" transform="translate(98,145)"/>
<path d="M0 0 C1.98 0 3.96 0 6 0 C6 8.58 6 17.16 6 26 C4.02 26 2.04 26 0 26 C-0.19421438 23.04196565 -0.38066186 20.08379837 -0.5625 17.125 C-0.61857422 16.28324219 -0.67464844 15.44148438 -0.73242188 14.57421875 C-0.78076172 13.76855469 -0.82910156 12.96289062 -0.87890625 12.1328125 C-0.9260376 11.38918457 -0.97316895 10.64555664 -1.02172852 9.87939453 C-1 8 -1 8 0 6 C0.039992 4.00039988 0.04346799 1.99952758 0 0 Z " fill="#4C9746" transform="translate(57,74)"/>
<path d="M0 0 C2.64 0 5.28 0 8 0 C8 8.91 8 17.82 8 27 C7.67 27 7.34 27 7 27 C7 18.42 7 9.84 7 1 C5.02 1 3.04 1 1 1 C1.185625 2.0725 1.37125 3.145 1.5625 4.25 C2 8 2 8 1.53125 9.75 C0.74867296 13.06444393 0.89591773 16.36584279 0.9375 19.75 C0.94201172 20.44738281 0.94652344 21.14476563 0.95117188 21.86328125 C0.9628998 23.57555803 0.98083347 25.28779033 1 27 C0.67 27 0.34 27 0 27 C-0.33 23.7 -0.66 20.4 -1 17 C-1.66 17.66 -2.32 18.32 -3 19 C-5.625 19.125 -5.625 19.125 -8 19 C-8.33 18.34 -8.66 17.68 -9 17 C-8.01 17 -7.02 17 -6 17 C-6.7115625 16.4740625 -6.7115625 16.4740625 -7.4375 15.9375 C-9.67873825 13.15836457 -9.67117658 10.4855283 -10 7 C-8.68 8.32 -7.36 9.64 -6 11 C-4.02 7.37 -2.04 3.74 0 0 Z " fill="#64A560" transform="translate(56,73)"/>
<path d="M0 0 C0.556875 0.37125 1.11375 0.7425 1.6875 1.125 C-0.45366638 3.26616638 -1.39417784 3.60333391 -4.234375 4.37890625 C-5.40226562 4.70084961 -5.40226562 4.70084961 -6.59375 5.02929688 C-7.4084375 5.24650391 -8.223125 5.46371094 -9.0625 5.6875 C-10.26132813 6.01911133 -10.26132813 6.01911133 -11.484375 6.35742188 C-18.63452322 8.30372044 -25.31172975 9.27770781 -32.74609375 9.2578125 C-33.94033714 9.25924759 -33.94033714 9.25924759 -35.15870667 9.26071167 C-36.83537882 9.26138934 -38.51205365 9.25956397 -40.1887207 9.25537109 C-42.73850474 9.25002411 -45.28811207 9.25532648 -47.83789062 9.26171875 C-49.47395872 9.26105776 -51.1100267 9.25977616 -52.74609375 9.2578125 C-53.87766151 9.26084885 -53.87766151 9.26084885 -55.03208923 9.26394653 C-59.55797841 9.24415618 -63.8462037 8.86576593 -68.3125 8.125 C-68.3125 7.465 -68.3125 6.805 -68.3125 6.125 C-64.2597484 5.14251476 -60.47388263 5.04340426 -56.3125 5.125 C-56.6425 6.115 -56.9725 7.105 -57.3125 8.125 C-30.22086181 7.73325184 -30.22086181 7.73325184 -4.5625 -0.1875 C-2.3125 -0.875 -2.3125 -0.875 0 0 Z " fill="#649463" transform="translate(152.3125,154.875)"/>
<path d="M0 0 C7.80550971 7.59454999 7.80550971 7.59454999 8.36076355 11.60699463 C8.35410172 12.59294617 8.34743988 13.57889771 8.34057617 14.59472656 C8.34034958 15.71558655 8.34012299 16.83644653 8.33988953 17.99127197 C8.32440567 19.19555847 8.30892181 20.39984497 8.29296875 21.640625 C8.28872391 22.87794373 8.28447906 24.11526245 8.28010559 25.39007568 C8.26616254 28.67162541 8.23923086 31.95273056 8.20599365 35.23413086 C8.17524594 38.58573307 8.16184603 41.93735439 8.14648438 45.2890625 C8.11339996 51.85954877 8.06318845 58.42973802 8 65 C7.67 65 7.34 65 7 65 C6.98969254 64.34489441 6.97938507 63.68978882 6.96876526 63.01483154 C6.86065576 56.20168161 6.74606117 49.38866273 6.62768555 42.57568359 C6.58435101 40.03241719 6.54267487 37.48912198 6.50268555 34.94580078 C6.44494742 31.29190381 6.38126275 27.63815169 6.31640625 23.984375 C6.29969376 22.84570984 6.28298126 21.70704468 6.26576233 20.53387451 C6.24581711 19.47307678 6.22587189 18.41227905 6.20532227 17.31933594 C6.18977798 16.38667908 6.1742337 15.45402222 6.15821838 14.49310303 C6.01246792 12.19646138 5.6435967 10.20298873 5 8 C3.68 8.33 2.36 8.66 1 9 C0.67 16.26 0.34 23.52 0 31 C-0.33 31 -0.66 31 -1 31 C-1 22.09 -1 13.18 -1 4 C-3.31 4 -5.62 4 -8 4 C-8 3.67 -8 3.34 -8 3 C-5.69 3 -3.38 3 -1 3 C-0.67 2.01 -0.34 1.02 0 0 Z " fill="#CEC8B0" transform="translate(76,69)"/>
<path d="M0 0 C5.46639447 0.18530151 5.46639447 0.18530151 7.6875 1.125 C8.0175 2.115 8.3475 3.105 8.6875 4.125 C8.3575 4.785 8.0275 5.445 7.6875 6.125 C11.1525 5.63 11.1525 5.63 14.6875 5.125 C11.39945019 8.03727269 9.08864397 9.62201212 4.6875 10.125 C4.6875 9.465 4.6875 8.805 4.6875 8.125 C3.6975 8.125 2.7075 8.125 1.6875 8.125 C1.3575 6.475 1.0275 4.825 0.6875 3.125 C-0.3025 4.115 -1.2925 5.105 -2.3125 6.125 C-1.9825 6.785 -1.6525 7.445 -1.3125 8.125 C-2.3025 8.125 -3.2925 8.125 -4.3125 8.125 C-4.3125 6.805 -4.3125 5.485 -4.3125 4.125 C-4.9725 4.125 -5.6325 4.125 -6.3125 4.125 C-6.3125 5.445 -6.3125 6.765 -6.3125 8.125 C-7.3025 8.125 -8.2925 8.125 -9.3125 8.125 C-11.3125 5.125 -11.3125 5.125 -11.3125 1.125 C-10.178125 1.145625 -9.04375 1.16625 -7.875 1.1875 C-3.88662966 1.11752859 -3.89503451 0.14698243 0 0 Z " fill="#E7DED7" transform="translate(142.3125,144.875)"/>
<path d="M0 0 C1.32 0 2.64 0 4 0 C4.38218767 1.65614657 4.71395102 3.32457024 5 5 C4.67 5.33 4.34 5.66 4 6 C4 7.32 4 8.64 4 10 C5.65 10 7.3 10 9 10 C9 13 9 13 8 15 C5.69 15 3.38 15 1 15 C0.67 15.99 0.34 16.98 0 18 C-1.32 17.67 -2.64 17.34 -4 17 C-3.5359375 15.515 -3.5359375 15.515 -3.0625 14 C-2.26109579 11.22894742 -1.76230735 8.553139 -1.4375 5.6875 C-1 2 -1 2 0 0 Z " fill="#4C9848" transform="translate(102,80)"/>
<path d="M0 0 C-0.99 0.66 -1.98 1.32 -3 2 C-3 2.99 -3 3.98 -3 5 C-3.99 4.67 -4.98 4.34 -6 4 C-6 5.32 -6 6.64 -6 8 C-5.34 8 -4.68 8 -4 8 C-3.67 7.34 -3.34 6.68 -3 6 C-2.01 6 -1.02 6 0 6 C0 7.32 0 8.64 0 10 C2.97 10.495 2.97 10.495 6 11 C6.33 11.99 6.66 12.98 7 14 C7.99 14.33 8.98 14.66 10 15 C10 15.66 10 16.32 10 17 C8.68 17.33 7.36 17.66 6 18 C5.67 16.68 5.34 15.36 5 14 C3.05396726 13.40929986 3.05396726 13.40929986 1 13 C0.67 13.33 0.34 13.66 0 14 C-2.8125 14.375 -2.8125 14.375 -6 14 C-8.4375 11.9375 -8.4375 11.9375 -10 9 C-9.9375 5.3125 -9.9375 5.3125 -9 2 C-5.5647952 -0.29013653 -4.014669 -0.17842973 0 0 Z " fill="#E2EEE0" transform="translate(122,113)"/>
<path d="M0 0 C0.79921875 0.00902344 1.5984375 0.01804688 2.421875 0.02734375 C3.02515625 0.03894531 3.6284375 0.05054688 4.25 0.0625 C5.02772405 2.39567216 5.67415568 4.67685923 6.25 7.0625 C7.57 7.0625 8.89 7.0625 10.25 7.0625 C10.25 7.7225 10.25 8.3825 10.25 9.0625 C7.94 9.0625 5.63 9.0625 3.25 9.0625 C2.59 7.0825 1.93 5.1025 1.25 3.0625 C1.25 4.3825 1.25 5.7025 1.25 7.0625 C0.25 9.3125 0.25 9.3125 -0.75 11.0625 C-1.08 9.7425 -1.41 8.4225 -1.75 7.0625 C-2.08 7.7225 -2.41 8.3825 -2.75 9.0625 C-4.73 9.0625 -6.71 9.0625 -8.75 9.0625 C-8.75 6.4225 -8.75 3.7825 -8.75 1.0625 C-5.75519083 0.1901588 -3.11424089 -0.04579766 0 0 Z " fill="#EFE7DD" transform="translate(60.75,144.9375)"/>
<path d="M0 0 C-0.515625 0.4125 -1.03125 0.825 -1.5625 1.25 C-2.036875 1.8275 -2.51125 2.405 -3 3 C-2.77242269 5.16299211 -2.77242269 5.16299211 -2 7 C-2.99 7 -3.98 7 -5 7 C-5 7.99 -5 8.98 -5 10 C-6.28745036 10.38922918 -7.58019597 10.76098036 -8.875 11.125 C-9.95394531 11.43824219 -9.95394531 11.43824219 -11.0546875 11.7578125 C-11.69664063 11.83773437 -12.33859375 11.91765625 -13 12 C-15 10 -15 10 -16 7 C-14.125 4.4375 -14.125 4.4375 -12 2 C-11.67 1.34 -11.34 0.68 -11 0 C-6.94952424 -1.35015859 -4.2079832 -0.62084998 0 0 Z " fill="#934C25" transform="translate(102,37)"/>
<path d="M0 0 C1.32 0.33 2.64 0.66 4 1 C4 1.99 4 2.98 4 4 C5.65 4.33 7.3 4.66 9 5 C9 5.66 9 6.32 9 7 C10.32 7 11.64 7 13 7 C13.33 7.99 13.66 8.98 14 10 C12 13 12 13 11 14 C9.48530552 14.23192865 7.96245438 14.41215238 6.4375 14.5625 C5.61121094 14.64628906 4.78492187 14.73007813 3.93359375 14.81640625 C3.29550781 14.87699219 2.65742187 14.93757812 2 15 C1.855625 14.21625 1.71125 13.4325 1.5625 12.625 C1.12201075 10.03578982 1.12201075 10.03578982 0 8 C0.66 8 1.32 8 2 8 C1.67 7.236875 1.34 6.47375 1 5.6875 C0 3 0 3 0 0 Z " fill="#F0EEEB" transform="translate(110,146)"/>
<path d="M0 0 C8 0 8 0 10.125 2.0625 C11.28351264 5.95179243 10.39350637 8.25953552 9 12 C8.34 11.34 7.68 10.68 7 10 C7.33 9.01 7.66 8.02 8 7 C7.34 6.67 6.68 6.34 6 6 C6.33 5.01 6.66 4.02 7 3 C5.35 2.67 3.7 2.34 2 2 C2 9.59 2 17.18 2 25 C3.65 25.33 5.3 25.66 7 26 C7 26.33 7 26.66 7 27 C4.69 27 2.38 27 0 27 C0 18.09 0 9.18 0 0 Z " fill="#62995E" transform="translate(35,73)"/>
<path d="M0 0 C0.99 0 1.98 0 3 0 C2.34 1.98 1.68 3.96 1 6 C6.4650483 4.71880272 6.4650483 4.71880272 11.75 2.875 C14 2 14 2 18 2 C17.67 3.65 17.34 5.3 17 7 C18.093125 6.79375 19.18625 6.5875 20.3125 6.375 C24 6 24 6 27 8 C19.41 8.33 11.82 8.66 4 9 C4 8.34 4 7.68 4 7 C2.02 7 0.04 7 -2 7 C-1.125 2.25 -1.125 2.25 0 0 Z " fill="#F4ECE2" transform="translate(71,50)"/>
<path d="M0 0 C2.64 0 5.28 0 8 0 C8.66 1.65 9.32 3.3 10 5 C9.01 4.67 8.02 4.34 7 4 C6.67 4.66 6.34 5.32 6 6 C5.34 6 4.68 6 4 6 C4 6.99 4 7.98 4 9 C4.66 9 5.32 9 6 9 C6.33 11.64 6.66 14.28 7 17 C5.35 17 3.7 17 2 17 C1.25073929 13.33694766 0.7619986 10.57644848 2 7 C1.01 7 0.02 7 -1 7 C-0.67 4.69 -0.34 2.38 0 0 Z " fill="#5A9C58" transform="translate(104,73)"/>
<path d="M0 0 C13.53 0 27.06 0 41 0 C41 0.33 41 0.66 41 1 C40.40461426 1.01981934 39.80922852 1.03963867 39.19580078 1.06005859 C36.50507847 1.15516126 33.81514852 1.26489842 31.125 1.375 C30.18785156 1.4059375 29.25070313 1.436875 28.28515625 1.46875 C27.38925781 1.50742188 26.49335938 1.54609375 25.5703125 1.5859375 C24.74289551 1.6173584 23.91547852 1.6487793 23.06298828 1.68115234 C20.78013915 1.82599137 20.78013915 1.82599137 19 4 C19 3.34 19 2.68 19 2 C16.69 2 14.38 2 12 2 C12 3.32 12 4.64 12 6 C11.21625 5.95875 10.4325 5.9175 9.625 5.875 C6.83883881 5.71271266 6.83883881 5.71271266 5 8 C4.01 6.68 3.02 5.36 2 4 C2.66 3.34 3.32 2.68 4 2 C2.68 1.34 1.36 0.68 0 0 Z " fill="#E2E2DB" transform="translate(119,144)"/>
<path d="M0 0 C0.33 0.66 0.66 1.32 1 2 C1.66 2.33 2.32 2.66 3 3 C-1 5 -1 5 -5 7 C-5.73075648 9.3140622 -6.40138258 11.64828869 -7 14 C-8.65 14 -10.3 14 -12 14 C-12.33 14.66 -12.66 15.32 -13 16 C-13.763125 15.814375 -14.52625 15.62875 -15.3125 15.4375 C-18.08967375 14.77180827 -18.08967375 14.77180827 -21 16 C-21.66 15.34 -22.32 14.68 -23 14 C-21.92621094 13.49210938 -20.85242188 12.98421875 -19.74609375 12.4609375 C-9.1220172 7.36871148 -9.1220172 7.36871148 0 0 Z " fill="#E3EFE2" transform="translate(172,144)"/>
<path d="M0 0 C0.598125 0.33 1.19625 0.66 1.8125 1 C4.05386471 2.20787988 4.05386471 2.20787988 7 2 C2.01627418 7.46602187 -4.34713102 13.33675135 -12 14 C-12.66 13.34 -13.32 12.68 -14 12 C-13.24074219 11.46890625 -12.48148438 10.9378125 -11.69921875 10.390625 C-10.70535156 9.68421875 -9.71148437 8.9778125 -8.6875 8.25 C-7.70136719 7.55390625 -6.71523437 6.8578125 -5.69921875 6.140625 C-3.2890307 4.22921682 -1.68139018 2.54790867 0 0 Z " fill="#599958" transform="translate(165,142)"/>
<path d="M0 0 C0.66 0.33 1.32 0.66 2 1 C1.67 2.32 1.34 3.64 1 5 C1.66 5 2.32 5 3 5 C3.33 4.01 3.66 3.02 4 2 C5.32 2.66 6.64 3.32 8 4 C7.67 6.97 7.34 9.94 7 13 C4.69 13 2.38 13 0 13 C-0.94738023 10.15785932 -1.13460559 8.32391609 -1.125 5.375 C-1.12757812 4.57835938 -1.13015625 3.78171875 -1.1328125 2.9609375 C-1 1 -1 1 0 0 Z " fill="#4D9649" transform="translate(51,120)"/>
<path d="M0 0 C2.64 0 5.28 0 8 0 C8 9.24 8 18.48 8 28 C5.36 28 2.72 28 0 28 C0 27.67 0 27.34 0 27 C2.31 27 4.62 27 7 27 C7 18.42 7 9.84 7 1 C6.34 2.98 5.68 4.96 5 7 C3.5 9.375 3.5 9.375 2 11 C1.34 11 0.68 11 0 11 C0 7.37 0 3.74 0 0 Z " fill="#76AF70" transform="translate(148,106)"/>
<path d="M0 0 C3.96 0 7.92 0 12 0 C12 2.31 12 4.62 12 7 C8.04 7 4.08 7 0 7 C0 4.69 0 2.38 0 0 Z " fill="#6DA16A" transform="translate(91,127)"/>
<path d="M0 0 C2.64 0 5.28 0 8 0 C9.33257403 9.41002278 9.33257403 9.41002278 8 14 C6 14 6 14 4.48046875 12.78515625 C2.77319736 10.7265203 2.10530414 8.98370167 1.3125 6.4375 C1.06113281 5.65246094 0.80976562 4.86742188 0.55078125 4.05859375 C0 2 0 2 0 0 Z " fill="#499942" transform="translate(43,106)"/>
<path d="M0 0 C3.63 0 7.26 0 11 0 C9.99609759 4.01560965 8.82479402 5.95119372 6.4375 9.25 C5.79683594 10.14203125 5.15617187 11.0340625 4.49609375 11.953125 C3.75552734 12.96632813 3.75552734 12.96632813 3 14 C2.34 13.67 1.68 13.34 1 13 C0.01 13.99 -0.98 14.98 -2 16 C-1.34 13.36 -0.68 10.72 0 8 C0.66 8 1.32 8 2 8 C2.33 5.69 2.66 3.38 3 1 C2.01 0.67 1.02 0.34 0 0 Z " fill="#B89B86" transform="translate(93,58)"/>
<path d="M0 0 C3.96 0 7.92 0 12 0 C11.34 3.3 10.68 6.6 10 10 C5 9 5 9 3.41796875 7.44140625 C3.01191406 6.82136719 2.60585937 6.20132813 2.1875 5.5625 C1.76855469 4.94503906 1.34960938 4.32757813 0.91796875 3.69140625 C0 2 0 2 0 0 Z " fill="#B8927E" transform="translate(70,58)"/>
<path d="M0 0 C3.63 0 7.26 0 11 0 C11 2.31 11 4.62 11 7 C7.37 7 3.74 7 0 7 C0 4.69 0 2.38 0 0 Z " fill="#5D9C5B" transform="translate(91,106)"/>
<path d="M0 0 C11.54365468 5.13051319 20.30275256 15.10049099 29 24 C28.67 24.66 28.34 25.32 28 26 C27.24976563 25.21496094 26.49953125 24.42992188 25.7265625 23.62109375 C17.1230762 14.73898065 8.67680794 7.54098087 -3 3 C-2.01 2.67 -1.02 2.34 0 2 C0 1.34 0 0.68 0 0 Z " fill="#885F4B" transform="translate(131,42)"/>
<path d="M0 0 C2.97 0 5.94 0 9 0 C7.43358249 4.30764815 5.31663844 8.06171464 3 12 C1.5 10.6875 1.5 10.6875 0 9 C0 8.01 0 7.02 0 6 C-0.66 5.67 -1.32 5.34 -2 5 C-1.34 3.35 -0.68 1.7 0 0 Z " fill="#5B9C59" transform="translate(33,106)"/>
<path d="M0 0 C0.99 0.33 1.98 0.66 3 1 C3 1.66 3 2.32 3 3 C2.01 3.495 2.01 3.495 1 4 C1.66 4.66 2.32 5.32 3 6 C2.625 8.125 2.625 8.125 2 10 C1.34 10 0.68 10 0 10 C-0.66 9.01 -1.32 8.02 -2 7 C-2.66 7.66 -3.32 8.32 -4 9 C-6.625 9.625 -6.625 9.625 -9 10 C-9.33 8.35 -9.66 6.7 -10 5 C-9.01 4.67 -8.02 4.34 -7 4 C-7 3.34 -7 2.68 -7 2 C-4.03 2.495 -4.03 2.495 -1 3 C-0.67 2.01 -0.34 1.02 0 0 Z " fill="#E9E8E6" transform="translate(45,150)"/>
<path d="M0 0 C1.98 0 3.96 0 6 0 C7.46726798 3.81489674 6.43336419 6.29011622 5 10 C4.01 9.34 3.02 8.68 2 8 C1.01 8.66 0.02 9.32 -1 10 C-2.27351308 7.45297384 -1.80191925 6.5717055 -1.0625 3.875 C-0.86785156 3.15054688 -0.67320313 2.42609375 -0.47265625 1.6796875 C-0.31667969 1.12539062 -0.16070312 0.57109375 0 0 Z " fill="#4C9A46" transform="translate(60,107)"/>
<path d="M0 0 C0.66 0 1.32 0 2 0 C2.391875 0.969375 2.78375 1.93875 3.1875 2.9375 C4.67594887 6.22176391 4.67594887 6.22176391 7.6875 6.875 C8.8321875 6.936875 8.8321875 6.936875 10 7 C10 7.66 10 8.32 10 9 C7.69 9 5.38 9 3 9 C2.87625 9.639375 2.7525 10.27875 2.625 10.9375 C2.41875 11.618125 2.2125 12.29875 2 13 C-1.06890187 14.53445094 -3.70094266 13.54984289 -7 13 C-7 12.67 -7 12.34 -7 12 C-4.69 12 -2.38 12 0 12 C0 8.04 0 4.08 0 0 Z " fill="#CDE7CD" transform="translate(42,88)"/>
<path d="M0 0 C2.64 0 5.28 0 8 0 C8.33 0.66 8.66 1.32 9 2 C10.32 1.67 11.64 1.34 13 1 C13.93423645 4.01031744 14.04449911 4.86650268 13 8 C11.68 8 10.36 8 9 8 C9 7.34 9 6.68 9 6 C7.35 5.67 5.7 5.34 4 5 C3.67 5.66 3.34 6.32 3 7 C2.87625 6.030625 2.7525 5.06125 2.625 4.0625 C2.41875 3.051875 2.2125 2.04125 2 1 C1.34 0.67 0.68 0.34 0 0 Z " fill="#C9B9B0" transform="translate(110,145)"/>
<path d="M0 0 C0 0.66 0 1.32 0 2 C-1.32 2 -2.64 2 -4 2 C-4 2.66 -4 3.32 -4 4 C-6.31 4.66 -8.62 5.32 -11 6 C-10.67 5.01 -10.34 4.02 -10 3 C-19.57 3 -29.14 3 -39 3 C-39 2.67 -39 2.34 -39 2 C-37.72938721 1.96241577 -37.72938721 1.96241577 -36.43310547 1.92407227 C-33.26844442 1.82852143 -30.10392437 1.72931434 -26.93945312 1.62768555 C-25.57393824 1.58456912 -24.20837748 1.54287932 -22.84277344 1.50268555 C-20.8716281 1.44441446 -18.90065332 1.38046264 -16.9296875 1.31640625 C-15.74616699 1.27974854 -14.56264648 1.24309082 -13.34326172 1.20532227 C-8.82228437 0.92767206 -4.53924673 0 0 0 Z " fill="#D2E1D0" transform="translate(138,162)"/>
<path d="M0 0 C0.33 0 0.66 0 1 0 C1 11.55 1 23.1 1 35 C2.32 35.66 3.64 36.32 5 37 C6.33333333 37.66666667 7.66666667 38.33333333 9 39 C6.36 39 3.72 39 1 39 C1 40.98 1 42.96 1 45 C0.67 45 0.34 45 0 45 C0 30.15 0 15.3 0 0 Z " fill="#E0DEC3" transform="translate(90,78)"/>
<path d="M0 0 C1.231394 3.69418201 0.64432764 6.2056261 0 10 C-1.98 10 -3.96 10 -6 10 C-6.79953138 6.71303767 -7.09658936 5.28976808 -6 2 C-3.85412616 0.684787 -2.52986895 0 0 0 Z " fill="#4A9A44" transform="translate(74,120)"/>
<path d="M0 0 C1.65 0 3.3 0 5 0 C5.33 0.99 5.66 1.98 6 3 C5.67 3.66 5.34 4.32 5 5 C8.465 4.505 8.465 4.505 12 4 C8.71195019 6.91227269 6.40114397 8.49701212 2 9 C2 8.34 2 7.68 2 7 C1.34 7 0.68 7 0 7 C0 4.69 0 2.38 0 0 Z " fill="#E2DECA" transform="translate(145,146)"/>
<path d="M0 0 C1.95803507 -0.05389087 3.91648909 -0.09274217 5.875 -0.125 C7.51082031 -0.15980469 7.51082031 -0.15980469 9.1796875 -0.1953125 C12 0 12 0 14 2 C14.99 2 15.98 2 17 2 C16.125 6.75 16.125 6.75 15 9 C12 8 12 8 10 5 C10 4.01 10 3.02 10 2 C7.36 2 4.72 2 2 2 C1.67 2.66 1.34 3.32 1 4 C0.67 2.68 0.34 1.36 0 0 Z " fill="#E2EFE0" transform="translate(16,104)"/>
<path d="M0 0 C0.33 0 0.66 0 1 0 C1 8.91 1 17.82 1 27 C3.31 27 5.62 27 8 27 C8 27.33 8 27.66 8 28 C6.02 28 4.04 28 2 28 C2 28.66 2 29.32 2 30 C1.01 30 0.02 30 -1 30 C-1 29.34 -1 28.68 -1 28 C-3.97 28 -6.94 28 -10 28 C-10 27.67 -10 27.34 -10 27 C-7.69 27 -5.38 27 -3 27 C-3 26.34 -3 25.68 -3 25 C-2.34 25 -1.68 25 -1 25 C-0.67 16.75 -0.34 8.5 0 0 Z " fill="#D8ECD6" transform="translate(67,73)"/>
<path d="M0 0 C1.98 0 3.96 0 6 0 C6 0.33 6 0.66 6 1 C4.35 1 2.7 1 1 1 C1.08378906 1.89203125 1.16757813 2.7840625 1.25390625 3.703125 C1.35574219 4.87359375 1.45757812 6.0440625 1.5625 7.25 C1.66691406 8.41015625 1.77132812 9.5703125 1.87890625 10.765625 C1.98198087 13.51871477 1.86213473 15.419982 1 18 C1.66 18.33 2.32 18.66 3 19 C2.34 19 1.68 19 1 19 C2.9254644 21.2236068 2.9254644 21.2236068 6 22 C6 23.32 6 24.64 6 26 C4.02 26 2.04 26 0 26 C0 17.42 0 8.84 0 0 Z " fill="#4D8F4A" transform="translate(133,107)"/>
<path d="M0 0 C0.66 0.33 1.32 0.66 2 1 C2.09688221 6.44693314 2.12862175 11.63904667 1 17 C0.34 16.67 -0.32 16.34 -1 16 C-0.67 13.69 -0.34 11.38 0 9 C-1.32 9.33 -2.64 9.66 -4 10 C-3.34 8.35 -2.68 6.7 -2 5 C-3.65 3.68 -5.3 2.36 -7 1 C-5.5459375 1.0309375 -5.5459375 1.0309375 -4.0625 1.0625 C-1.12534105 1.35618499 -1.12534105 1.35618499 0 0 Z " fill="#E6F2E1" transform="translate(130,105)"/>
<path d="M0 0 C7.42857143 -0.28571429 7.42857143 -0.28571429 11 2 C10.01 3.485 10.01 3.485 9 5 C9 4.01 9 3.02 9 2 C8.814375 2.639375 8.62875 3.27875 8.4375 3.9375 C7 6 7 6 3.375 6.75 C2.26125 6.8325 1.1475 6.915 0 7 C0.2784375 6.1028125 0.2784375 6.1028125 0.5625 5.1875 C1.22093687 2.83591238 1.22093687 2.83591238 0 0 Z " fill="#EEE8E2" transform="translate(27,146)"/>
<path d="M0 0 C0.33 0 0.66 0 1 0 C1.33 1.65 1.66 3.3 2 5 C3.83700789 5.77242269 3.83700789 5.77242269 6 6 C7.77190909 4.64555699 7.77190909 4.64555699 9 3 C8.6130131 5.24452405 8.08035336 6.87054181 6.875 8.8125 C3.90927187 10.69079448 1.33268566 9.60594285 -2 9 C-2.99 9.495 -2.99 9.495 -4 10 C-4 8.02 -4 6.04 -4 4 C-2.02 4.99 -2.02 4.99 0 6 C0 4.02 0 2.04 0 0 Z " fill="#A9765C" transform="translate(86,67)"/>
<path d="M0 0 C1.03450491 1.30674304 2.02172071 2.65064926 3 4 C3.433125 4.52464844 3.86625 5.04929687 4.3125 5.58984375 C8.88532407 11.7345761 8.50963809 17.57060911 8 25 C10.31 25 12.62 25 15 25 C15 25.33 15 25.66 15 26 C12.36 26 9.72 26 7 26 C6.95101563 25.07316406 6.90203125 24.14632812 6.8515625 23.19140625 C6.77679687 21.99386719 6.70203125 20.79632813 6.625 19.5625 C6.55539063 18.36753906 6.48578125 17.17257813 6.4140625 15.94140625 C6.27742188 14.97074219 6.14078125 14.00007813 6 13 C5.34 12.67 4.68 12.34 4 12 C4 10.68 4 9.36 4 8 C3.01 8 2.02 8 1 8 C-1.125 3.375 -1.125 3.375 0 0 Z " fill="#C5E4C2" transform="translate(18,108)"/>
<path d="M0 0 C-0.33 0.99 -0.66 1.98 -1 3 C4.61 3 10.22 3 16 3 C16 3.33 16 3.66 16 4 C12.64585201 4.02929977 9.29173747 4.0468989 5.9375 4.0625 C4.99455078 4.07087891 4.05160156 4.07925781 3.08007812 4.08789062 C-2.0630768 4.10581103 -6.93258427 3.89259611 -12 3 C-12 2.34 -12 1.68 -12 1 C-7.9472484 0.01751476 -4.16138263 -0.08159574 0 0 Z " fill="#83A481" transform="translate(96,160)"/>
<path d="M0 0 C1.65 0 3.3 0 5 0 C5.33 2.64 5.66 5.28 6 8 C4.02 8 2.04 8 0 8 C-0.33 7.01 -0.66 6.02 -1 5 C-1.66 4.67 -2.32 4.34 -3 4 C-2.01 3.67 -1.02 3.34 0 3 C0 2.01 0 1.02 0 0 Z " fill="#E9E3D9" transform="translate(105,145)"/>
<path d="M0 0 C2.64 0 5.28 0 8 0 C8 1.98 8 3.96 8 6 C5.36 6 2.72 6 0 6 C0 4.02 0 2.04 0 0 Z " fill="#5C9057" transform="translate(91,117)"/>
<path d="M0 0 C0.66 0.99 1.32 1.98 2 3 C1.34 3 0.68 3 0 3 C0 4.98 0 6.96 0 9 C0.99 9.33 1.98 9.66 3 10 C3.33 8.68 3.66 7.36 4 6 C7.3 6.33 10.6 6.66 14 7 C14 7.33 14 7.66 14 8 C9.545 8.495 9.545 8.495 5 9 C4.67 9.99 4.34 10.98 4 12 C1.69 12 -0.62 12 -3 12 C-2.49202991 7.6822542 -1.80317221 3.96697886 0 0 Z " fill="#5F9C5F" transform="translate(99,88)"/>
<path d="M0 0 C0.66 0 1.32 0 2 0 C2.53293835 1.74635165 3.05090663 3.49727652 3.5625 5.25 C3.85253906 6.22453125 4.14257812 7.1990625 4.44140625 8.203125 C4.99249836 10.96243932 4.93789609 12.3912824 4 15 C-0.94080338 10.30021142 -0.94080338 10.30021142 -1.109375 6.59765625 C-0.84113292 4.36348207 -0.49266131 2.19502566 0 0 Z " fill="#D3ECD2" transform="translate(61,118)"/>
<path d="M0 0 C2.64 0 5.28 0 8 0 C8 3.3 8 6.6 8 10 C7.34 8.68 6.68 7.36 6 6 C5.34 5.67 4.68 5.34 4 5 C4.66 4.01 5.32 3.02 6 2 C4.68 2 3.36 2 2 2 C1.67 4.31 1.34 6.62 1 9 C0.67 9 0.34 9 0 9 C0 6.03 0 3.06 0 0 Z " fill="#E5F4E2" transform="translate(140,124)"/>
<path d="M0 0 C0.99 0.33 1.98 0.66 3 1 C3.66 0.67 4.32 0.34 5 0 C5.16682272 4.92127034 5.24828052 8.50343896 3 13 C0.89172945 9.83759418 0.66182535 8.49342531 0.375 4.8125 C0.30023438 3.91144531 0.22546875 3.01039062 0.1484375 2.08203125 C0.09945312 1.39496094 0.05046875 0.70789063 0 0 Z " fill="#EFF8EE" transform="translate(52,107)"/>
<path d="M0 0 C2.64 0 5.28 0 8 0 C8.33 1.98 8.66 3.96 9 6 C8.01 6.495 8.01 6.495 7 7 C7 5.68 7 4.36 7 3 C6.01 3 5.02 3 4 3 C3.67 4.65 3.34 6.3 3 8 C0.4345406 5.4345406 0.45953913 3.52313332 0 0 Z " fill="#639A5E" transform="translate(43,106)"/>
<path d="M0 0 C1 3 1 3 0.00390625 5.48046875 C-0.47175781 6.37378906 -0.94742188 7.26710938 -1.4375 8.1875 C-1.91058594 9.08855469 -2.38367187 9.98960938 -2.87109375 10.91796875 C-3.24363281 11.60503906 -3.61617187 12.29210937 -4 13 C-6.26656844 10.09382458 -7.74433095 7.47723736 -9 4 C-6.69 4.33 -4.38 4.66 -2 5 C-1.34 3.35 -0.68 1.7 0 0 Z " fill="#E4F4E2" transform="translate(54,73)"/>
<path d="M0 0 C0.763125 0.639375 1.52625 1.27875 2.3125 1.9375 C4.88246713 4.14232781 4.88246713 4.14232781 8 5 C8 5.99 8 6.98 8 8 C9.65 8 11.3 8 13 8 C11.125 12.75 11.125 12.75 10 15 C8.51586815 13.06613122 7.03762572 11.12821927 5.5625 9.1875 C5.14162109 8.64029297 4.72074219 8.09308594 4.28710938 7.52929688 C2.38855525 5.02320543 1.00193327 3.00579981 0 0 Z " fill="#BCABA7" transform="translate(160,68)"/>
<path d="M0 0 C1.11375 0.185625 2.2275 0.37125 3.375 0.5625 C6.82568861 1.31680657 6.82568861 1.31680657 9 0 C8.625 2.9375 8.625 2.9375 8 6 C7.01 6.495 7.01 6.495 6 7 C6 6.34 6 5.68 6 5 C5.34 5 4.68 5 4 5 C4 5.66 4 6.32 4 7 C3.34 7 2.68 7 2 7 C1.34 4.69 0.68 2.38 0 0 Z " fill="#966D57" transform="translate(89,146)"/>
<path d="M0 0 C3.87511727 0.54984772 5.59576506 2.27555331 8.25 5.0625 C8.95640625 5.79597656 9.6628125 6.52945313 10.390625 7.28515625 C10.92171875 7.85105469 11.4528125 8.41695312 12 9 C11.01 9.99 10.02 10.98 9 12 C8.443125 10.865625 7.88625 9.73125 7.3125 8.5625 C5.6170039 5.45879183 5.6170039 5.45879183 2.3125 4.1875 C1.1678125 4.0946875 1.1678125 4.0946875 0 4 C-0.33 3.34 -0.66 2.68 -1 2 C-0.67 1.34 -0.34 0.68 0 0 Z " fill="#F4EDE7" transform="translate(148,59)"/>
<path d="M0 0 C2.125 0.375 2.125 0.375 4 1 C4.625 2.875 4.625 2.875 5 5 C4.34 5.66 3.68 6.32 3 7 C0.875 6.625 0.875 6.625 -1 6 C-1.625 4.125 -1.625 4.125 -2 2 C-1.34 1.34 -0.68 0.68 0 0 Z " fill="#9E7D6B" transform="translate(67,146)"/>
<path d="M0 0 C0.99 0 1.98 0 3 0 C3 0.66 3 1.32 3 2 C4.98 2 6.96 2 9 2 C8.625 4.4375 8.625 4.4375 8 7 C7.01 7.495 7.01 7.495 6 8 C6 7.01 6 6.02 6 5 C4.5459375 4.814375 4.5459375 4.814375 3.0625 4.625 C2.051875 4.41875 1.04125 4.2125 0 4 C-0.33 3.34 -0.66 2.68 -1 2 C-0.67 1.34 -0.34 0.68 0 0 Z " fill="#F5F3F4" transform="translate(63,101)"/>
<path d="M0 0 C3.63 0.66 7.26 1.32 11 2 C11 2.33 11 2.66 11 3 C8.36 3 5.72 3 3 3 C3.33 4.32 3.66 5.64 4 7 C3.01 7 2.02 7 1 7 C1 7.66 1 8.32 1 9 C0.34 8.67 -0.32 8.34 -1 8 C-0.01 6.35 0.98 4.7 2 3 C-0.31 3 -2.62 3 -5 3 C-5 2.67 -5 2.34 -5 2 C-3.35 1.67 -1.7 1.34 0 1 C0 0.67 0 0.34 0 0 Z " fill="#E2F3E1" transform="translate(40,103)"/>
<path d="M0 0 C0.33 0.66 0.66 1.32 1 2 C1.66 2 2.32 2 3 2 C3.33 4.64 3.66 7.28 4 10 C2.35 10 0.7 10 -1 10 C-2.23076923 4.58461538 -2.23076923 4.58461538 -1.0625 1.625 C-0.5365625 0.820625 -0.5365625 0.820625 0 0 Z " fill="#9BCA96" transform="translate(107,80)"/>
<path d="M0 0 C2.66666667 2.66666667 5.33333333 5.33333333 8 8 C7.01 8.33 6.02 8.66 5 9 C4.34 8.34 3.68 7.68 3 7 C1.02 7.99 1.02 7.99 -1 9 C-1.09765625 2.84765625 -1.09765625 2.84765625 -1 1 C-0.67 0.67 -0.34 0.34 0 0 Z " fill="#E3F2E3" transform="translate(104,125)"/>
<path d="M0 0 C2.35953094 2.35953094 2.49141413 3.77895617 3 7 C4.65 7.33 6.3 7.66 8 8 C8 8.33 8 8.66 8 9 C0.61538462 9.36923077 0.61538462 9.36923077 -2.5 7.5 C-2.995 7.005 -3.49 6.51 -4 6 C-3.34 5.01 -2.68 4.02 -2 3 C-1.34 3 -0.68 3 0 3 C0 2.01 0 1.02 0 0 Z " fill="#5D9F5C" transform="translate(114,125)"/>
<path d="M0 0 C-0.33 0.66 -0.66 1.32 -1 2 C-3.64 1.67 -6.28 1.34 -9 1 C-9.66 3.97 -10.32 6.94 -11 10 C-13 6 -13 6 -12 2.875 C-10 0 -10 0 -7.0625 -1.5 C-3.78496693 -2.03510744 -2.6801575 -1.85549365 0 0 Z " fill="#E2F5DE" transform="translate(113,72)"/>
<path d="M0 0 C0.598125 0.350625 1.19625 0.70125 1.8125 1.0625 C1.8125 1.7225 1.8125 2.3825 1.8125 3.0625 C2.4725 3.7225 3.1325 4.3825 3.8125 5.0625 C0.5125 5.0625 -2.7875 5.0625 -6.1875 5.0625 C-5.8575 3.4125 -5.5275 1.7625 -5.1875 0.0625 C-2.1875 -0.9375 -2.1875 -0.9375 0 0 Z " fill="#F6F5F7" transform="translate(94.1875,51.9375)"/>
<path d="M0 0 C-1.11179163 3.33537489 -2.47411298 4.63707344 -5 7 C-4.34 7.33 -3.68 7.66 -3 8 C-3.99 8 -4.98 8 -6 8 C-6.33 9.32 -6.66 10.64 -7 12 C-7.99 12 -8.98 12 -10 12 C-8.88685188 7.3247779 -5.68510408 0 0 0 Z " fill="#874D2E" transform="translate(84,43)"/>
<path d="M0 0 C1.32 1.65 2.64 3.3 4 5 C3.01 5.495 3.01 5.495 2 6 C1.67 6.66 1.34 7.32 1 8 C-1.0625 8.625 -1.0625 8.625 -3 9 C-3.33 8.01 -3.66 7.02 -4 6 C-2.84338843 3.79192337 -1.77322566 1.77322566 0 0 Z " fill="#4A9845" transform="translate(176,127)"/>
<path d="M0 0 C0.33 0 0.66 0 1 0 C1.33 2.64 1.66 5.28 2 8 C3.65 8.33 5.3 8.66 7 9 C7 6.03 7 3.06 7 0 C7.33 0 7.66 0 8 0 C8 3.63 8 7.26 8 11 C5.36 11 2.72 11 0 11 C0 7.37 0 3.74 0 0 Z " fill="#D8F2D5" transform="translate(140,106)"/>
<path d="M0 0 C1.32 0.66 2.64 1.32 4 2 C4 3.98 4 5.96 4 8 C2.68 8.33 1.36 8.66 0 9 C0 8.01 0 7.02 0 6 C-0.66 6 -1.32 6 -2 6 C-2 5.01 -2 4.02 -2 3 C-1.34 3 -0.68 3 0 3 C0 2.01 0 1.02 0 0 Z " fill="#4A9846" transform="translate(110,76)"/>
<path d="M0 0 C0.99 1.32 1.98 2.64 3 4 C1.68 5.65 0.36 7.3 -1 9 C-1.33 8.67 -1.66 8.34 -2 8 C-2.99 8.99 -3.98 9.98 -5 11 C-4.34 8.36 -3.68 5.72 -3 3 C-2.34 3 -1.68 3 -1 3 C-0.67 2.01 -0.34 1.02 0 0 Z " fill="#BE9580" transform="translate(96,63)"/>
<path d="M0 0 C0.625 1.875 0.625 1.875 1 4 C0.34 4.66 -0.32 5.32 -1 6 C-1 6.99 -1 7.98 -1 9 C-0.34 9.33 0.32 9.66 1 10 C1 10.66 1 11.32 1 12 C-1.97 11.505 -1.97 11.505 -5 11 C-5 9.35 -5 7.7 -5 6 C-4.34 6 -3.68 6 -3 6 C-3.33 4.68 -3.66 3.36 -4 2 C-3.01 2.33 -2.02 2.66 -1 3 C-0.67 2.01 -0.34 1.02 0 0 Z " fill="#E2DED3" transform="translate(97,149)"/>
<path d="M0 0 C1.640625 1.10546875 1.640625 1.10546875 4.078125 3.10546875 C3.748125 4.09546875 3.418125 5.08546875 3.078125 6.10546875 C2.748125 5.44546875 2.418125 4.78546875 2.078125 4.10546875 C1.088125 3.77546875 0.098125 3.44546875 -0.921875 3.10546875 C-1.581875 2.44546875 -2.241875 1.78546875 -2.921875 1.10546875 C-7.09125298 0.86946622 -10.86579505 1.12217664 -14.921875 2.10546875 C-12.61498311 -2.50831503 -4.16899715 -1.94044786 0 0 Z " fill="#5E975B" transform="translate(124.921875,106.89453125)"/>
<path d="M0 0 C-0.33 0.66 -0.66 1.32 -1 2 C-6.66137303 3.3864587 -10.56059334 2.62227918 -16 1 C-16 0.67 -16 0.34 -16 0 C-10.31302429 -0.91397824 -5.68697571 -0.91397824 0 0 Z " fill="#EFE5E2" transform="translate(128,35)"/>
<path d="M0 0 C2.64 0 5.28 0 8 0 C8 1.65 8 3.3 8 5 C5.36 4.67 2.72 4.34 0 4 C0.66 3.67 1.32 3.34 2 3 C2 2.34 2 1.68 2 1 C1.34 0.67 0.68 0.34 0 0 Z " fill="#4C9449" transform="translate(94,128)"/>
<path d="M0 0 C2.475 0.495 2.475 0.495 5 1 C5 2.98 5 4.96 5 7 C3.33333333 7 1.66666667 7 0 7 C0 4.69 0 2.38 0 0 Z " fill="#97715C" transform="translate(52,146)"/>
<path d="M0 0 C0.97918775 3.07556958 1.1498998 3.68592423 -0.3125 6.75 C-0.869375 7.4925 -1.42625 8.235 -2 9 C-2.66 9 -3.32 9 -4 9 C-4 12.63 -4 16.26 -4 20 C-4.33 20 -4.66 20 -5 20 C-5.61046468 11.86047097 -5.2922002 6.4262431 0 0 Z " fill="#C4E1C1" transform="translate(38,113)"/>
<path d="M0 0 C0.99 0.99 1.98 1.98 3 3 C3.99 2.01 4.98 1.02 6 0 C5.01 3.63 4.02 7.26 3 11 C0.43383368 7.15075052 0.44902324 4.5650696 0 0 Z " fill="#DBF2D7" transform="translate(67,109)"/>
<path d="M0 0 C0.99 0 1.98 0 3 0 C4.421875 1.6796875 4.421875 1.6796875 5.75 3.875 C6.19859375 4.59429687 6.6471875 5.31359375 7.109375 6.0546875 C7.40328125 6.69664063 7.6971875 7.33859375 8 8 C7.67 8.66 7.34 9.32 7 10 C3.60582235 6.87378374 1.3937282 4.43458973 0 0 Z " fill="#BFA092" transform="translate(70,58)"/>
<path d="M0 0 C2.31 0 4.62 0 7 0 C7 0.99 7 1.98 7 3 C5.68 3 4.36 3 3 3 C2.67 4.65 2.34 6.3 2 8 C1.33333333 5.33333333 0.66666667 2.66666667 0 0 Z " fill="#EEEDEB" transform="translate(98,145)"/>
<path d="M0 0 C0.99 0 1.98 0 3 0 C2.34 1.98 1.68 3.96 1 6 C2.32 6 3.64 6 5 6 C4.67 6.99 4.34 7.98 4 9 C4 8.34 4 7.68 4 7 C2.02 7 0.04 7 -2 7 C-1.125 2.25 -1.125 2.25 0 0 Z " fill="#ECE1D8" transform="translate(71,50)"/>
<path d="M0 0 C1.98 0 3.96 0 6 0 C6 0.66 6 1.32 6 2 C5.34 2 4.68 2 4 2 C4 3.65 4 5.3 4 7 C3.34 7 2.68 7 2 7 C0 4 0 4 0 0 Z " fill="#AC9183" transform="translate(131,146)"/>
<path d="M0 0 C0.33 0 0.66 0 1 0 C1 1.98 1 3.96 1 6 C2.98 6 4.96 6 7 6 C7 6.99 7 7.98 7 9 C4.69 9 2.38 9 0 9 C0 6.03 0 3.06 0 0 Z " fill="#599756" transform="translate(148,124)"/>
<path d="M0 0 C0.33 1.32 0.66 2.64 1 4 C0.34 4 -0.32 4 -1 4 C-1 7.3 -1 10.6 -1 14 C-0.34 14 0.32 14 1 14 C0.67 15.32 0.34 16.64 0 18 C-2 16 -2 16 -2.265625 13.06640625 C-2.26046875 11.91011719 -2.2553125 10.75382812 -2.25 9.5625 C-2.25515625 8.40878906 -2.2603125 7.25507812 -2.265625 6.06640625 C-2 3 -2 3 0 0 Z " fill="#649D64" transform="translate(107,111)"/>
<path d="M0 0 C1.98 0 3.96 0 6 0 C4.55746343 3.36591866 2.66735273 5.51047079 0 8 C-0.33 7.34 -0.66 6.68 -1 6 C-0.34 6 0.32 6 1 6 C0.67 4.02 0.34 2.04 0 0 Z " fill="#E4EFE1" transform="translate(160,140)"/>
<path d="M0 0 C2.32472205 2.85306797 3.7508258 5.54074837 5 9 C3.68388323 8.04663979 2.37221039 7.08714226 1.0625 6.125 C0.33160156 5.59132813 -0.39929688 5.05765625 -1.15234375 4.5078125 C-3 3 -3 3 -4 1 C-2.68 0.67 -1.36 0.34 0 0 Z " fill="#865E46" transform="translate(173,86)"/>
<path d="M0 0 C4.25177923 0.47241991 6.29969203 2.84964071 9 6 C9 6.99 9 7.98 9 9 C7.87105124 8.06725891 6.74699124 7.12859878 5.625 6.1875 C4.99851563 5.66542969 4.37203125 5.14335938 3.7265625 4.60546875 C2 3 2 3 0 0 Z " fill="#ECDED6" transform="translate(147,53)"/>
<path d="M0 0 C0.66 0.99 1.32 1.98 2 3 C1.67 4.32 1.34 5.64 1 7 C-2.3 6.67 -5.6 6.34 -9 6 C-8.67 4.68 -8.34 3.36 -8 2 C-8 2.99 -8 3.98 -8 5 C-5.69 5 -3.38 5 -1 5 C-0.67 3.35 -0.34 1.7 0 0 Z " fill="#C1DDC0" transform="translate(59,128)"/>
<path d="M0 0 C0 2.97 0 5.94 0 9 C-0.33 7.68 -0.66 6.36 -1 5 C-2.65 5.33 -4.3 5.66 -6 6 C-6 5.01 -6 4.02 -6 3 C-2.66666667 0 -2.66666667 0 0 0 Z " fill="#5A9C54" transform="translate(140,124)"/>
<path d="M0 0 C0.99 0.33 1.98 0.66 3 1 C3 4.96 3 8.92 3 13 C2.34 12.67 1.68 12.34 1 12 C1.33 9.69 1.66 7.38 2 5 C0.68 5.33 -0.64 5.66 -2 6 C-1.67 5.195625 -1.34 4.39125 -1 3.5625 C0.06059041 1.30318875 0.06059041 1.30318875 0 0 Z " fill="#DEE8DC" transform="translate(128,109)"/>
<path d="M0 0 C2.33944736 0.28730055 4.6739143 0.61936779 7 1 C6.67 2.32 6.34 3.64 6 5 C4.35 5 2.7 5 1 5 C0.34 3.68 -0.32 2.36 -1 1 C-0.67 0.67 -0.34 0.34 0 0 Z " fill="#599555" transform="translate(46,90)"/>
<path d="M0 0 C2.9375 0.8125 2.9375 0.8125 6 2 C6.33 2.99 6.66 3.98 7 5 C4.125 5.125 4.125 5.125 1 5 C0.34 4.34 -0.32 3.68 -1 3 C-0.67 2.01 -0.34 1.02 0 0 Z " fill="#8E5639" transform="translate(124,39)"/>
<path d="M0 0 C0 0.66 0 1.32 0 2 C-1.98 2.99 -1.98 2.99 -4 4 C-4 4.66 -4 5.32 -4 6 C-4.99 6 -5.98 6 -7 6 C-7 5.01 -7 4.02 -7 3 C-7.99 2.67 -8.98 2.34 -10 2 C-8.7090864 1.66376204 -7.41723903 1.33110751 -6.125 1 C-5.40570313 0.814375 -4.68640625 0.62875 -3.9453125 0.4375 C-2 0 -2 0 0 0 Z " fill="#D3E7CF" transform="translate(148,159)"/>
<path d="M0 0 C0.99 0 1.98 0 3 0 C3 0.66 3 1.32 3 2 C3.66 2 4.32 2 5 2 C5 1.34 5 0.68 5 0 C6.32 0.66 7.64 1.32 9 2 C5.7 2.66 2.4 3.32 -1 4 C-1 1 -1 1 0 0 Z " fill="#D6E5D5" transform="translate(135,156)"/>
<path d="M0 0 C0.8353125 0.556875 0.8353125 0.556875 1.6875 1.125 C-0.67203094 3.48453094 -2.09145617 3.61641413 -5.3125 4.125 C-5.9725 3.135 -6.6325 2.145 -7.3125 1.125 C-2.88173077 -1.09038462 -2.88173077 -1.09038462 0 0 Z " fill="#6AA06B" transform="translate(152.3125,154.875)"/>
<path d="M0 0 C0.33 0 0.66 0 1 0 C1.29341888 5.67276511 1.00559652 8.99067246 -2 14 C-2.66 14 -3.32 14 -4 14 C-3.566875 12.7625 -3.566875 12.7625 -3.125 11.5 C-1.90101549 7.69204819 -0.9383118 3.88729173 0 0 Z " fill="#D5EED3" transform="translate(183,122)"/>
<path d="M0 0 C0.99 0 1.98 0 3 0 C3.33 2.31 3.66 4.62 4 7 C3.01 7 2.02 7 1 7 C0.67 8.32 0.34 9.64 0 11 C0 7.37 0 3.74 0 0 Z " fill="#589853" transform="translate(26,122)"/>
<path d="M0 0 C0.33 0.99 0.66 1.98 1 3 C0.34 3 -0.32 3 -1 3 C-1 3.99 -1 4.98 -1 6 C-0.34 6.33 0.32 6.66 1 7 C-0.98 7 -2.96 7 -5 7 C-5 6.01 -5 5.02 -5 4 C-5.66 3.34 -6.32 2.68 -7 2 C-4.69 2 -2.38 2 0 2 C0 1.34 0 0.68 0 0 Z " fill="#D7E7D9" transform="translate(121,98)"/>
<path d="M0 0 C0.99 0 1.98 0 3 0 C3.33 1.98 3.66 3.96 4 6 C2.35 6 0.7 6 -1 6 C-0.67 4.02 -0.34 2.04 0 0 Z " fill="#916450" transform="translate(107,147)"/>
<path d="M0 0 C1.32 0 2.64 0 4 0 C4 2.31 4 4.62 4 7 C2.68 7 1.36 7 0 7 C0.2784375 6.1028125 0.2784375 6.1028125 0.5625 5.1875 C1.22093687 2.83591238 1.22093687 2.83591238 0 0 Z " fill="#906A58" transform="translate(27,146)"/>
<path d="M0 0 C0.33 0.66 0.66 1.32 1 2 C1.66 2.33 2.32 2.66 3 3 C-0.29549466 4.72264494 -3.33118845 6.29445932 -7 7 C-4.66666667 4.66666667 -2.33333333 2.33333333 0 0 Z " fill="#DDEEDC" transform="translate(172,144)"/>
<path d="M0 0 C2.475 0.495 2.475 0.495 5 1 C5.6875 2.8125 5.6875 2.8125 6 5 C4.5625 6.75 4.5625 6.75 3 8 C1.58622659 5.36095629 0.62759865 2.92879371 0 0 Z " fill="#B3866C" transform="translate(91,58)"/>
<path d="M0 0 C1.32 0 2.64 0 4 0 C4 1.32 4 2.64 4 4 C3.34 4 2.68 4 2 4 C2 4.66 2 5.32 2 6 C2.66 6.33 3.32 6.66 4 7 C2.68 7 1.36 7 0 7 C0 4.69 0 2.38 0 0 Z " fill="#8A6653" transform="translate(145,146)"/>
<path d="M0 0 C2.32472205 2.85306797 3.7508258 5.54074837 5 9 C3.125 8.8125 3.125 8.8125 1 8 C-0.3125 5.625 -0.3125 5.625 -1 3 C-0.67 2.01 -0.34 1.02 0 0 Z " fill="#D8ECD8" transform="translate(18,108)"/>
<path d="M0 0 C2.64 0 5.28 0 8 0 C7.01 0.33 6.02 0.66 5 1 C3.78130071 3.50447516 3.78130071 3.50447516 3 6 C0 2.25 0 2.25 0 0 Z " fill="#679D63" transform="translate(18,106)"/>
<path d="M0 0 C0.66 0 1.32 0 2 0 C2.33 1.98 2.66 3.96 3 6 C2.67 5.34 2.34 4.68 2 4 C1.34 4 0.68 4 0 4 C0 5.65 0 7.3 0 9 C-0.66 9 -1.32 9 -2 9 C-1.51421457 5.87709365 -1.0013988 3.00419641 0 0 Z " fill="#72A06F" transform="translate(179,99)"/>
<path d="M0 0 C0.66 0 1.32 0 2 0 C3.0326802 2.78823655 3.04509293 3.8677274 2.0625 6.75 C1.711875 7.4925 1.36125 8.235 1 9 C0.34 8.34 -0.32 7.68 -1 7 C-0.67 6.01 -0.34 5.02 0 4 C-0.66 3.67 -1.32 3.34 -2 3 C-1.34 2.01 -0.68 1.02 0 0 Z " fill="#569D51" transform="translate(43,76)"/>
<path d="M0 0 C0 0.33 0 0.66 0 1 C-2.97 1 -5.94 1 -9 1 C-9.33 1.99 -9.66 2.98 -10 4 C-10.33 3.34 -10.66 2.68 -11 2 C-12.98 2 -14.96 2 -17 2 C-17 1.67 -17 1.34 -17 1 C-11.33357449 -0.22517308 -5.76291482 -0.09228867 0 0 Z " fill="#E5CFC0" transform="translate(123,42)"/>
<path d="M0 0 C1.258125 -0.04125 2.51625 -0.0825 3.8125 -0.125 C4.52019531 -0.14820313 5.22789063 -0.17140625 5.95703125 -0.1953125 C8 0 8 0 11 2 C9.02 2.66 7.04 3.32 5 4 C5 3.01 5 2.02 5 1 C3.35 1.33 1.7 1.66 0 2 C0 1.34 0 0.68 0 0 Z " fill="#E8ECE7" transform="translate(107,165)"/>
<path d="M0 0 C0.66 0 1.32 0 2 0 C1.67 1.32 1.34 2.64 1 4 C-1.31 4 -3.62 4 -6 4 C-6 3.01 -6 2.02 -6 1 C-4.7934375 1.0309375 -4.7934375 1.0309375 -3.5625 1.0625 C-1.06645115 1.29633621 -1.06645115 1.29633621 0 0 Z " fill="#6EA270" transform="translate(72,130)"/>
<path d="M0 0 C1.98 0 3.96 0 6 0 C6 1.32 6 2.64 6 4 C5.01 4.33 4.02 4.66 3 5 C1 3 1 3 0 0 Z " fill="#4D9649" transform="translate(92,118)"/>
<path d="M0 0 C2.475 0.99 2.475 0.99 5 2 C4.01 4.64 3.02 7.28 2 10 C1.67 10 1.34 10 1 10 C0.67 6.7 0.34 3.4 0 0 Z " fill="#F3F4F2" transform="translate(102,103)"/>
<path d="M0 0 C2.64 0 5.28 0 8 0 C7.67 0.99 7.34 1.98 7 3 C6.21625 2.95875 5.4325 2.9175 4.625 2.875 C1.83883881 2.71271266 1.83883881 2.71271266 0 5 C0 3.35 0 1.7 0 0 Z " fill="#689B66" transform="translate(73,106)"/>
<path d="M0 0 C1.134375 0.020625 2.26875 0.04125 3.4375 0.0625 C3.4375 0.3925 3.4375 0.7225 3.4375 1.0625 C1.4575 1.0625 -0.5225 1.0625 -2.5625 1.0625 C-2.8925 2.7125 -3.2225 4.3625 -3.5625 6.0625 C-4.5525 6.3925 -5.5425 6.7225 -6.5625 7.0625 C-4.33277027 0.07601351 -4.33277027 0.07601351 0 0 Z " fill="#619861" transform="translate(59.5625,72.9375)"/>
<path d="M0 0 C2.475 0.495 2.475 0.495 5 1 C5 1.66 5 2.32 5 3 C5.99 3.33 6.98 3.66 8 4 C8 4.66 8 5.32 8 6 C6.68 6.33 5.36 6.66 4 7 C3.896875 6.401875 3.79375 5.80375 3.6875 5.1875 C2.91123545 2.71756736 1.92911079 1.67748765 0 0 Z " fill="#D4E5D3" transform="translate(124,124)"/>
<path d="M0 0 C0.66 0.33 1.32 0.66 2 1 C1.5020163 4.73487777 1.12508244 6.81237635 -1 10 C-1.33 8.02 -1.66 6.04 -2 4 C-1.34 4 -0.68 4 0 4 C0 2.68 0 1.36 0 0 Z " fill="#DAF1D7" transform="translate(55,110)"/>
<path d="M0 0 C2.52588702 2.36292656 3.88820837 3.66462511 5 7 C4.01 7 3.02 7 2 7 C0.25 4.625 0.25 4.625 -1 2 C-0.67 1.34 -0.34 0.68 0 0 Z " fill="#F1EAE2" transform="translate(159,62)"/>
<path d="M0 0 C0.99 0.66 1.98 1.32 3 2 C0.69 3.32 -1.62 4.64 -4 6 C-4.33 5.01 -4.66 4.02 -5 3 C-4.34 3 -3.68 3 -3 3 C-3 2.34 -3 1.68 -3 1 C-2.01 0.67 -1.02 0.34 0 0 Z " fill="#F4E9E3" transform="translate(86,37)"/>
<path d="M0 0 C-0.33 0.66 -0.66 1.32 -1 2 C-3.3140622 2.73075648 -5.64828869 3.40138258 -8 4 C-8.66 3.34 -9.32 2.68 -10 2 C-8.71211992 1.46987262 -7.41953322 0.9511671 -6.125 0.4375 C-5.40570313 0.14746094 -4.68640625 -0.14257812 -3.9453125 -0.44140625 C-2 -1 -2 -1 0 0 Z " fill="#E1F2DE" transform="translate(132,131)"/>
<path d="M0 0 C0.66 0.66 1.32 1.32 2 2 C1.01 2.33 0.02 2.66 -1 3 C-1.73323796 5.01508358 -1.73323796 5.01508358 -2 7 C-2 6.34 -2 5.68 -2 5 C-2.66 5 -3.32 5 -4 5 C-4 3.68 -4 2.36 -4 1 C-2.125 0.375 -2.125 0.375 0 0 Z " fill="#F8F4F9" transform="translate(120,116)"/>
<path d="M0 0 C2.31 0.33 4.62 0.66 7 1 C6.01 2.32 5.02 3.64 4 5 C3.01 4.67 2.02 4.34 1 4 C0.3125 1.9375 0.3125 1.9375 0 0 Z " fill="#F0F3EF" transform="translate(112,100)"/>
<path d="M0 0 C0.33 1.32 0.66 2.64 1 4 C-1 5 -1 5 -4.125 4.0625 C-5.07375 3.711875 -6.0225 3.36125 -7 3 C-7 2.67 -7 2.34 -7 2 C-4.69 2 -2.38 2 0 2 C0 1.34 0 0.68 0 0 Z " fill="#E6F6E4" transform="translate(73,132)"/>
<path d="M0 0 C0.66 0.99 1.32 1.98 2 3 C1.125 5.6875 1.125 5.6875 0 8 C-0.66 8 -1.32 8 -2 8 C-1.125 2.25 -1.125 2.25 0 0 Z " fill="#5D9C5D" transform="translate(102,80)"/>
<path d="M0 0 C1.32 0.66 2.64 1.32 4 2 C3.67 2.99 3.34 3.98 3 5 C2.67 4.67 2.34 4.34 2 4 C0.32457024 4.28604898 -1.34385343 4.61781233 -3 5 C-1.125 1.125 -1.125 1.125 0 0 Z " fill="#DFD1C6" transform="translate(171,83)"/>
<path d="M0 0 C0.66 0.66 1.32 1.32 2 2 C1.625 4.125 1.625 4.125 1 6 C0.67 5.67 0.34 5.34 0 5 C-1.34747084 4.76924918 -2.70377565 4.58846937 -4.0625 4.4375 C-5.361875 4.293125 -6.66125 4.14875 -8 4 C-8 3.67 -8 3.34 -8 3 C-5.69 3 -3.38 3 -1 3 C-0.67 2.01 -0.34 1.02 0 0 Z " fill="#E1EDD6" transform="translate(76,69)"/>
<path d="M0 0 C0 0.99 0 1.98 0 3 C-0.99 3.33 -1.98 3.66 -3 4 C-4.32 2.68 -5.64 1.36 -7 0 C-3.86650268 -1.04449911 -3.01031744 -0.93423645 0 0 Z " fill="#EDE1DA" transform="translate(149,49)"/>
<path d="M0 0 C0 0.99 0 1.98 0 3 C0.66 3.33 1.32 3.66 2 4 C-1.90838866 4 -3.11594107 2.49432124 -6 0 C-2.25 -1.125 -2.25 -1.125 0 0 Z " fill="#F4E8E1" transform="translate(141,44)"/>
<path d="M0 0 C0.99 0.33 1.98 0.66 3 1 C3.33 2.65 3.66 4.3 4 6 C2.68 6 1.36 6 0 6 C0 4.02 0 2.04 0 0 Z " fill="#895C4E" transform="translate(40,147)"/>
<path d="M0 0 C2.31 0 4.62 0 7 0 C7 1.65 7 3.3 7 5 C6.34 4.01 5.68 3.02 5 2 C3.35 2.33 1.7 2.66 0 3 C0 2.01 0 1.02 0 0 Z " fill="#DAECDA" transform="translate(51,106)"/>
<path d="M0 0 C1.65 1.65 3.3 3.3 5 5 C4.01 5.66 3.02 6.32 2 7 C0 4 0 4 0 0 Z " fill="#EFE4DB" transform="translate(155,64)"/>
<path d="M0 0 C1.485 0.99 1.485 0.99 3 2 C2.01 2 1.02 2 0 2 C0 1.34 0 0.68 0 0 Z M-3 2 C-2.01 2 -1.02 2 0 2 C-0.33 3.32 -0.66 4.64 -1 6 C-1.99 6 -2.98 6 -4 6 C-3.67 4.68 -3.34 3.36 -3 2 Z " fill="#914822" transform="translate(78,49)"/>
</svg>
